<svg width="37" height="36" viewBox="0 0 37 36" fill="none" xmlns="http://www.w3.org/2000/svg">
<rect x="1.4541" width="35" height="35" rx="17.5" transform="rotate(1.46925 1.4541 0)" fill="#9BCA41"/>
<path d="M18.1154 32.9403C9.96281 32.8204 3.31733 25.8673 3.54344 17.5871C3.76673 9.41659 10.5124 2.82758 18.815 2.98561C22.9457 3.0641 26.4961 4.62427 29.3507 7.61512C32.3792 10.7889 33.7433 14.6134 33.4803 18.9796C33.0088 26.9241 26.153 33.2563 18.1154 32.9403ZM3.90019 17.5962C3.68762 25.616 9.95701 32.2436 17.8701 32.5976C26.085 32.9662 32.9304 26.5033 33.1591 18.3879C33.3833 10.4508 27.1472 3.59749 18.9705 3.34658C10.9311 3.09919 4.12383 9.41202 3.90019 17.5962Z" fill="white"/>
<path d="M16.6096 11.9086C16.7774 11.7893 16.9102 11.6966 17.043 11.6039C17.141 11.5309 17.2091 11.5532 17.2612 11.6644C17.3788 11.894 17.5037 12.11 17.6285 12.3329C17.7335 12.5209 17.7676 12.5287 17.9092 12.3607C18.4114 11.7832 18.9202 11.2196 19.3955 10.6208C19.6222 10.3451 19.8254 10.1856 20.1917 10.3597C20.3408 10.4322 20.5262 10.4301 20.7108 10.4623C20.4092 10.7085 20.1216 10.9483 19.8409 11.1882C19.181 11.7549 18.5814 12.3848 18.0286 13.0571C17.8798 13.2386 17.6664 13.2606 17.5268 13.0854C17.2137 12.7135 16.9285 12.3218 16.6096 11.9086Z" fill="white"/>
<path d="M26.5007 12.4574C26.3898 12.4957 26.3156 12.4458 26.2493 12.3548C25.2742 11.0255 24.0441 10.0053 22.5448 9.30785C21.7374 8.93702 20.8995 8.68212 20.0244 8.54297C19.3612 8.43672 18.6963 8.39907 18.0294 8.43688C16.118 8.55262 14.3793 9.1602 12.8397 10.3015C12.1959 10.7793 11.6257 11.3276 11.1224 11.9462C11.0232 12.0673 11.0232 12.0673 10.8246 12.0484C12.5758 9.88282 14.7851 8.59394 17.5383 8.31445C21.7021 7.90637 24.9275 10.0898 26.5007 12.4574Z" fill="white"/>
<path d="M10.5441 23.5333C10.7104 23.4757 10.7702 23.5528 10.8367 23.6369C11.8054 24.9455 13.022 25.9584 14.5079 26.6418C15.3695 27.0415 16.2684 27.3254 17.2201 27.4253C17.6308 27.4702 18.0417 27.5082 18.4534 27.5187C19.8804 27.5553 21.2407 27.247 22.5398 26.6487C23.8806 26.0309 25.0087 25.14 25.9442 23.9969C26.0149 23.9163 26.0779 23.8699 26.2137 23.9283C24.3356 26.2211 21.9542 27.533 18.9991 27.6563C15.4596 27.8127 12.6754 26.3545 10.5441 23.5333Z" fill="white"/>
<path d="M31.2798 18.3122C31.2719 18.621 31.0327 18.8482 30.7308 18.8405C30.4358 18.8329 30.1883 18.5794 30.1959 18.2844C30.2033 17.9963 30.4636 17.749 30.7588 17.7497C31.0536 17.7641 31.2876 18.0104 31.2798 18.3122Z" fill="white"/>
<path d="M6.80248 17.6844C6.79456 17.9931 6.55532 18.2204 6.25346 18.2127C5.95846 18.2051 5.71113 17.9447 5.71852 17.6566C5.72609 17.3616 5.98626 17.1211 6.28126 17.1287C6.58312 17.1364 6.81022 17.3825 6.80248 17.6844Z" fill="white"/>
<path d="M23.9403 19.3302C23.6076 19.7983 23.1534 19.934 22.6419 19.9383C22.2605 19.9372 21.8785 19.962 21.498 19.9263C21.0829 19.8896 20.7324 19.6986 20.5448 19.2431C20.3107 19.5838 20.0284 19.7759 19.6719 19.8187C19.3849 19.8547 19.0804 19.8989 18.7957 19.8483C18.606 19.8087 18.4374 19.6224 18.2673 19.4967C18.2164 19.452 18.1836 19.3819 18.1251 19.2937C18.0621 19.3874 18.0254 19.4645 17.9803 19.5327C17.6727 20.0362 17.2609 20.2076 16.7208 19.9771C16.2921 19.7927 15.8828 19.5309 15.4723 19.3123C15.4126 19.2761 15.3531 19.2312 15.2762 19.1859C14.9804 19.5684 14.6277 19.8021 14.1262 19.7545C13.6593 19.7079 13.2735 19.542 13.0687 19.0773C13.0245 19.1108 12.9981 19.1275 12.9801 19.153C12.7469 19.4591 12.4224 19.6068 12.057 19.6581C11.5873 19.7241 11.1109 19.7118 10.646 19.5872C10.3793 19.5111 10.1485 19.3838 9.9637 19.1537C9.91328 19.0917 9.81 19.0631 9.73226 19.0524C9.35224 18.9993 8.97133 18.9809 8.60042 18.9107C7.61716 18.7208 7.42549 18.0831 7.71646 17.2151C7.9228 16.605 8.4252 16.2799 8.98602 16.0429C9.1788 15.9612 9.37115 15.8967 9.57171 15.8499C9.74606 15.811 9.852 15.7357 9.81358 15.544C9.80559 15.5178 9.8238 15.4836 9.83402 15.4232C10.1632 15.4317 10.4926 15.4314 10.8126 15.457C10.8473 15.4579 10.905 15.572 10.9034 15.6327C10.8988 16.1526 10.8854 16.6723 10.8632 17.2005C10.8404 18.0927 11.1773 18.136 11.8807 18.0847C12.1499 18.0656 12.3476 17.7933 12.3655 17.4297C12.3784 16.9273 12.3827 16.4247 12.3869 15.9221C12.3907 15.4368 12.4033 14.9431 12.3984 14.4575C12.4018 14.3276 12.4375 14.2852 12.5677 14.2798C12.8973 14.271 13.2185 14.2532 13.5485 14.227C13.7135 14.2139 13.7553 14.2756 13.7513 14.4316C13.7166 15.4448 13.6904 16.4669 13.6644 17.4804C13.6584 17.7143 13.7051 17.9235 13.9096 18.0587C14.1397 18.212 14.643 18.1902 14.856 17.9963C15.0068 17.8615 15.1236 17.6998 15.2576 17.5473C15.5072 17.2763 15.7315 16.9787 16.0063 16.743C16.564 16.2893 17.6485 16.2477 18.1192 17.1613C18.2182 17.3545 18.3086 17.5475 18.3904 17.7403C18.6018 18.2831 19.1202 18.3484 19.6175 18.2225C19.8707 18.151 19.9717 17.9282 19.9868 17.6772C19.9999 17.5042 20.0044 17.331 20.0002 17.1575C20.0031 17.0449 20.039 16.9938 20.1514 17.0054C20.4633 17.0134 20.7664 17.0211 21.0783 17.0291C21.1909 17.032 21.2244 17.0762 21.2215 17.1888C21.224 17.4316 21.2175 17.6828 21.246 17.9262C21.275 18.1436 21.427 18.3036 21.6433 18.3178C21.9893 18.344 22.336 18.3442 22.6827 18.3444C22.7434 18.346 22.8047 18.3216 22.8573 18.2969C22.9799 18.2481 23.0168 18.1623 22.9417 18.0477C22.8495 17.924 22.7574 17.8003 22.6563 17.685C22.5133 17.5167 22.3791 17.3399 22.2183 17.1884C21.8632 16.8412 21.8479 16.4248 21.9374 15.9764C21.9867 15.7436 22.1211 15.5737 22.3398 15.4926C22.9782 15.275 23.6165 15.0573 24.2546 14.8483C24.5169 14.7597 24.7872 14.6973 25.1015 14.61C25.0948 14.8699 25.0888 15.1037 25.083 15.3289C25.0686 15.892 25.0684 15.9006 24.5356 16.0603C24.2035 16.1645 23.8717 16.26 23.5396 16.3642C23.4697 16.3884 23.4084 16.4128 23.3384 16.437C23.3462 16.4719 23.3455 16.4979 23.3626 16.507C23.7831 17.0118 24.2035 17.5167 24.6242 18.0129C24.7168 18.1192 24.8272 18.2088 24.9467 18.2812C25.2707 18.4888 25.575 18.4533 25.8335 18.1739C26.0385 17.9538 26.2095 17.7068 26.4061 17.4778C26.7368 17.0876 27.1089 16.7764 27.6566 16.7125C28.5605 16.6143 29.2395 17.1778 29.2855 18.0891C29.3135 18.6879 29.178 19.2391 28.8786 19.7602C28.5701 20.2983 28.1409 20.4694 27.575 20.2295C27.1635 20.0542 26.771 19.8101 26.3779 19.592C26.3095 19.5556 26.2502 19.5021 26.1564 19.439C25.8695 19.813 25.5252 20.0556 25.0322 20.0169C24.556 19.996 24.2517 19.6935 23.9403 19.3302ZM28.2014 19.1274C28.4284 18.7258 28.3426 18.3509 28.0441 18.1612C27.6941 17.9529 27.1881 18.0786 26.9267 18.4706C27.3458 18.6894 27.7649 18.9082 28.2014 19.1274ZM17.3218 18.8484C17.5404 18.4379 17.4633 18.0632 17.1559 17.882C16.8145 17.6739 16.3086 17.7996 16.0471 18.1916C16.4749 18.4106 16.8943 18.6207 17.3218 18.8484ZM9.78759 16.8956C9.37891 16.9457 9.004 17.0315 8.66973 17.2223C8.60821 17.2554 8.54535 17.3404 8.5438 17.4011C8.54268 17.4444 8.62731 17.5245 8.68772 17.5348C8.998 17.6034 9.3085 17.6634 9.62788 17.7149C9.66231 17.7244 9.75115 17.64 9.75226 17.5967C9.77514 17.3806 9.78092 17.1554 9.78759 16.8956Z" fill="white"/>
<path d="M20.2578 16.5921C20.0372 16.4045 19.8338 16.2259 19.6132 16.0382C19.7918 15.8348 19.9526 15.6482 20.1401 15.4363C20.2929 15.5616 20.4286 15.6777 20.59 15.8032C20.706 15.6762 20.8217 15.5578 20.9465 15.4223C21.1755 15.6189 21.3874 15.8063 21.6164 16.0029C21.4207 16.1972 21.2512 16.3836 21.0644 16.5695C20.9114 16.4529 20.7757 16.3367 20.6227 16.2201C20.4892 16.3554 20.3824 16.4653 20.2578 16.5921Z" fill="white"/>
<path d="M10.4753 15.0931C10.3309 14.9767 10.195 14.8692 10.0337 14.735C9.92644 14.8623 9.81917 14.9896 9.70323 15.1166C9.4658 14.9112 9.25369 14.7324 9.03314 14.5447C9.21172 14.3412 9.37252 14.1547 9.55132 13.9426C9.70412 14.0678 9.84849 14.1842 10.0013 14.3095C10.1172 14.1824 10.2243 14.0638 10.3491 13.9283C10.5697 14.116 10.7816 14.3035 11.019 14.5089C10.8404 14.7124 10.6623 14.8985 10.4753 15.0931Z" fill="white"/>
<path d="M19.6048 5.88931C19.7337 5.6798 19.8482 5.49738 19.9628 5.31496C20.0486 5.17987 20.0486 5.17987 20.2259 5.2256C20.214 5.42438 20.195 5.62985 20.1828 5.83548C20.1731 5.94508 20.1635 6.05467 20.1469 6.16408C20.1392 6.19821 20.104 6.23163 20.0759 6.25837C20.0562 6.22354 20.0159 6.18818 20.0168 6.15388C20.0289 5.94824 20.0479 5.74278 20.06 5.53714C20.0606 5.51656 20.0544 5.48894 20.0493 5.42016C19.9202 5.63653 19.8197 5.80558 19.7054 5.98113C19.6767 6.02845 19.628 6.05466 19.586 6.08791C19.5527 6.04587 19.5056 6.01033 19.4862 5.96178C19.4086 5.77444 19.3381 5.58041 19.2605 5.39306C19.2468 5.39271 19.2331 5.39236 19.2192 5.39887C19.2012 5.56317 19.1835 5.72061 19.1655 5.88491C19.1567 5.9602 19.1548 6.03566 19.1393 6.10391C19.1318 6.13118 19.0902 6.14385 19.069 6.17076C19.0558 6.14983 19.0222 6.1215 19.0227 6.10092C19.0442 5.79941 19.0656 5.4979 19.0938 5.20343C19.0946 5.16913 19.1576 5.12269 19.1851 5.12339C19.2329 5.13148 19.3008 5.16069 19.3203 5.20238C19.3984 5.36914 19.4558 5.54224 19.5268 5.71568C19.5395 5.7572 19.5657 5.80593 19.6048 5.88931Z" fill="white"/>
<path d="M18.4181 29.701C18.5358 29.6628 18.6102 29.7059 18.6625 29.8102C18.7604 30.0049 18.8656 30.1861 18.9969 30.4229C19.1059 30.1854 19.2002 29.9887 19.2808 29.7917C19.3318 29.6763 19.3883 29.616 19.5309 29.6746C19.5401 29.8533 19.549 30.0389 19.5582 30.2176C19.5621 30.3344 19.5728 30.4514 19.5698 30.568C19.5686 30.616 19.533 30.6632 19.511 30.7175C19.4846 30.6757 19.4445 30.6335 19.4458 30.5854C19.4294 30.4203 19.4338 30.2487 19.4245 30.0769C19.4255 30.0357 19.4131 29.9873 19.3663 29.9381C19.2861 30.1214 19.1988 30.3114 19.1117 30.4945C19.0899 30.542 19.0408 30.5819 19.0055 30.6222C18.9652 30.5868 18.918 30.5513 18.8917 30.5094C18.7863 30.3351 18.695 30.1474 18.5551 29.9791C18.553 30.0614 18.5507 30.1506 18.5486 30.2329C18.552 30.3703 18.5622 30.5079 18.5587 30.6451C18.5578 30.6794 18.5224 30.7197 18.5078 30.7536C18.4814 30.7117 18.4343 30.6762 18.4285 30.6349C18.4128 30.4422 18.4107 30.2568 18.4088 30.0646C18.4051 29.9409 18.4149 29.8244 18.4181 29.701Z" fill="white"/>
<path d="M26.3085 26.4159C26.4286 26.2817 26.5276 26.1675 26.6402 26.0606C26.8585 25.8465 27.1607 25.8405 27.3752 26.0451C27.5898 26.2428 27.6097 26.5385 27.4251 26.7741C27.3259 26.8951 27.2132 27.0089 27.1001 27.1364C26.8387 26.8894 26.5769 26.6562 26.3085 26.4159ZM26.5148 26.4006C26.7162 26.5774 26.9039 26.7538 27.1053 26.9306C27.2744 26.7633 27.4566 26.617 27.4016 26.3547C27.3645 26.1958 27.2033 26.0544 27.0388 26.0433C26.7854 26.0231 26.6569 26.212 26.5148 26.4006Z" fill="white"/>
<path d="M26.7669 9.84872C27.0405 9.62233 27.3068 9.40948 27.5663 9.19645C27.9397 9.35706 28.1251 9.89042 27.9049 10.18C27.6987 10.4561 27.3137 10.4806 27.0732 10.2204C26.9729 10.1149 26.88 9.98892 26.7669 9.84872ZM27.5962 9.36884C27.456 9.48195 27.3232 9.57466 27.2035 9.68829C27.133 9.762 26.9539 9.78487 27.012 9.93052C27.0574 10.0347 27.158 10.1265 27.2523 10.1976C27.3937 10.3042 27.5867 10.2748 27.7272 10.148C27.8678 10.0211 27.907 9.82991 27.8148 9.67651C27.7628 9.56534 27.6757 9.48072 27.5962 9.36884Z" fill="white"/>
<path d="M17.7436 6.19851C17.428 6.19041 17.1872 5.94396 17.1949 5.6421C17.2025 5.3471 17.4765 5.10012 17.7921 5.10822C18.094 5.11596 18.3484 5.36963 18.3475 5.67166C18.3397 5.97352 18.066 6.20678 17.7436 6.19851ZM18.176 5.66726C18.1819 5.43401 18.0013 5.25088 17.7747 5.25194C17.5413 5.25281 17.3652 5.42679 17.3592 5.66004C17.353 5.90016 17.5203 6.06921 17.7606 6.06851C17.9941 6.06763 18.1698 5.90738 18.176 5.66726Z" fill="white"/>
<path d="M17.1368 29.5857C17.4798 29.5945 17.7073 29.8269 17.6992 30.1425C17.6842 30.4579 17.4592 30.6649 17.1366 30.6635C16.8004 30.6549 16.5524 30.422 16.5603 30.1133C16.5682 29.8045 16.8143 29.5774 17.1368 29.5857ZM17.5482 30.1386C17.554 29.9122 17.3804 29.7224 17.1473 29.7096C16.9211 29.6969 16.731 29.8842 16.7183 30.1105C16.7127 30.33 16.8928 30.5337 17.1192 30.5395C17.3385 30.552 17.5356 30.3648 17.5482 30.1386Z" fill="white"/>
<path d="M23.0472 28.8448C23.1062 28.9562 23.145 29.0464 23.191 29.13C23.3642 29.0658 23.5238 29.0012 23.6898 28.9506C23.6967 28.9507 23.7162 28.9924 23.7359 29.0273C23.576 29.1055 23.423 29.184 23.2768 29.2626C23.2761 29.2901 23.2757 29.3038 23.2822 29.3177C23.3852 29.5881 23.3852 29.5881 23.6423 29.4642C23.7396 29.4187 23.8438 29.3733 23.9898 29.3015C23.9741 29.3766 23.9794 29.4386 23.9584 29.4517C23.7567 29.5564 23.5414 29.6539 23.319 29.758C23.1626 29.4313 23.0128 29.1186 22.8632 28.7921C23.0785 28.6946 23.2733 28.5966 23.4747 28.5057C23.4956 28.4925 23.5363 28.5141 23.5704 28.5219C23.5558 28.5558 23.5477 28.6037 23.5268 28.6169C23.367 28.6883 23.2142 28.7599 23.0472 28.8448Z" fill="white"/>
<path d="M23.9392 6.35038C24.1493 6.45875 24.3389 6.55972 24.5215 6.66738C24.5486 6.6818 24.5542 6.73 24.5739 6.76483C24.5326 6.77064 24.484 6.78999 24.4571 6.7687C24.3079 6.69623 24.1727 6.61724 24.0372 6.54512C24.0093 6.565 24.0024 6.56482 23.9952 6.57836C23.8311 6.82129 23.8311 6.82129 24.0884 6.95833C24.1697 7.0016 24.2441 7.0447 24.3185 7.0878C24.318 7.10838 24.3176 7.1221 24.3171 7.14269C24.2758 7.14849 24.2202 7.17452 24.1862 7.15992C24.0573 7.1017 23.9287 7.02975 23.7932 6.95762C23.7503 7.02517 23.7213 7.08621 23.6856 7.14022C23.6354 7.22131 23.6479 7.26969 23.7361 7.31314C23.8581 7.37119 23.98 7.4361 24.0949 7.5077C24.122 7.52212 24.1276 7.57032 24.1405 7.60498C24.106 7.61096 24.0574 7.63031 24.0304 7.61588C23.8339 7.51473 23.6444 7.4069 23.4277 7.2915C23.6004 6.98014 23.7661 6.67546 23.9392 6.35038Z" fill="white"/>
<path d="M25.2403 27.3702C25.4227 27.217 25.5913 27.0703 25.7663 26.9375C25.7874 26.9174 25.8484 26.9464 25.9306 26.9554C25.7411 27.1153 25.6006 27.2421 25.4393 27.3753C25.5126 27.4596 25.5791 27.5437 25.6389 27.6207C25.7927 27.5148 25.9325 27.4154 26.0792 27.3162C26.0861 27.3164 26.1127 27.3514 26.1531 27.3799C26.0409 27.4731 25.9424 27.5667 25.8374 27.6464C25.7184 27.7326 25.7855 27.7961 25.8454 27.8663C25.9054 27.9365 25.9513 28.02 26.0569 27.9198C26.1763 27.813 26.3025 27.7132 26.4698 27.6146C26.4687 27.6557 26.4807 27.7247 26.4527 27.7445C26.291 27.8914 26.1158 28.0311 25.9264 28.191C25.7 27.9175 25.4803 27.651 25.2403 27.3702Z" fill="white"/>
<path d="M26.9909 8.60491C26.943 8.59681 26.8811 8.60209 26.8475 8.57377C26.7265 8.47456 26.6127 8.3618 26.4852 8.24869C26.4076 8.32908 26.337 8.40278 26.2593 8.49003C26.3733 8.59593 26.4739 8.68776 26.5742 8.7933C26.6009 8.82145 26.5997 8.86947 26.6123 8.91099C26.5713 8.90307 26.5231 8.9087 26.4962 8.88741C26.4222 8.83059 26.3483 8.76692 26.2883 8.69673C26.1882 8.58432 26.1251 8.63762 26.0473 8.72487C25.9697 8.80526 25.9405 8.87316 26.0482 8.9583C26.1492 9.03641 26.2361 9.12788 26.323 9.21936C26.3497 9.2475 26.3414 9.30221 26.3541 9.34372C26.3333 9.35006 26.3194 9.35657 26.2987 9.3629C26.1177 9.19349 25.9365 9.03095 25.7421 8.84748C25.9891 8.58608 26.2222 8.33118 26.4693 8.06292C26.657 8.23936 26.8382 8.40191 27.0125 8.56427C26.9986 8.57078 26.9914 8.58433 26.9909 8.60491Z" fill="white"/>
<path d="M12.0559 8.22869C11.8022 8.21532 11.4956 7.85734 11.5095 7.58309C11.5217 7.37745 11.7676 7.15722 11.9803 7.16267C12.2272 7.16901 12.5404 7.54088 12.5333 7.8153C12.5208 8.03466 12.2892 8.23467 12.0559 8.22869ZM11.9632 7.29267C11.7505 7.28721 11.6015 7.47561 11.6726 7.64906C11.7176 7.76692 11.7901 7.88548 11.8768 7.98382C12.0035 8.13123 12.1405 8.14161 12.2665 8.04873C12.3993 7.95603 12.4232 7.82621 12.3382 7.65927C12.2533 7.49233 12.1477 7.32486 11.9632 7.29267Z" fill="white"/>
<path d="M20.9435 6.44524C20.9172 6.40337 20.8566 6.35376 20.8644 6.31964C20.9342 6.00564 21.0176 5.69885 21.1019 5.35776C21.2859 5.41054 21.4702 5.44959 21.6333 5.51556C21.8168 5.58891 21.8748 5.73457 21.8217 5.93229C21.7832 6.09606 21.6431 6.20231 21.4716 6.19791C21.3824 6.19562 21.2936 6.17962 21.212 6.15006C21.0964 6.10591 21.0472 6.1527 21.0238 6.26194C21.0155 6.31665 20.9935 6.371 20.9784 6.42554C20.9713 6.43222 20.9574 6.43873 20.9435 6.44524ZM21.1066 5.97574C21.2769 6.02816 21.4458 6.13546 21.6067 6.01602C21.6697 5.96958 21.7146 5.82657 21.6889 5.75726C21.6185 5.55637 21.405 5.58522 21.221 5.53244C21.1828 5.68249 21.145 5.81882 21.1066 5.97574Z" fill="white"/>
<path d="M10.8818 26.693C10.8745 26.9743 10.5372 27.2814 10.2629 27.2675C10.0435 27.255 9.82964 27.0299 9.83527 26.8103C9.849 26.543 10.2006 26.2156 10.4612 26.2291C10.6804 26.2485 10.8874 26.4735 10.8818 26.693ZM10.7592 26.6555C10.7636 26.484 10.5616 26.3278 10.3952 26.3922C10.208 26.4629 10.0742 26.5968 9.99395 26.7801C9.92112 26.943 10.0668 27.1527 10.2451 27.1572C10.4306 27.1551 10.7542 26.8476 10.7592 26.6555Z" fill="white"/>
<path d="M11.5874 27.2809C11.9098 27.2891 12.1283 27.6037 11.9906 27.8885C11.9251 28.031 11.8052 28.1583 11.6859 28.2582C11.5316 28.3847 11.3538 28.3595 11.1789 28.2178C11.0176 28.0832 10.9736 27.9242 11.0401 27.7405C11.143 27.4754 11.3747 27.2754 11.5874 27.2809ZM11.9058 27.7147C11.9246 27.5161 11.716 27.3528 11.5427 27.417C11.3346 27.5009 11.2136 27.6695 11.1603 27.874C11.1071 28.0718 11.3288 28.2628 11.5161 28.1852C11.7313 28.0946 11.8389 27.912 11.9058 27.7147Z" fill="white"/>
<path d="M20.5513 30.5931C20.5108 30.5646 20.4427 30.5423 20.4366 30.5147C20.369 30.204 20.3085 29.8867 20.2422 29.528C20.4693 29.5063 20.6832 29.4638 20.889 29.4691C21.0537 29.4733 21.1186 29.6191 21.149 29.7709C21.1728 29.9157 21.1216 30.0379 20.9962 30.1102C20.9056 30.1628 20.8019 30.1876 20.6985 30.2056C20.5812 30.23 20.5048 30.2624 20.5631 30.4012C20.5824 30.4498 20.581 30.5046 20.5865 30.5597C20.5726 30.5662 20.5585 30.5796 20.5513 30.5931ZM20.7559 29.5755C20.6651 29.6349 20.4755 29.534 20.4364 29.7183C20.4047 29.8823 20.5092 30.0909 20.5916 30.093C20.8319 30.0923 21.0134 29.9734 21.0104 29.8223C21.0139 29.6851 20.9068 29.5794 20.7559 29.5755Z" fill="white"/>
<path d="M10.739 8.1675C11.0066 8.17436 11.3341 8.51915 11.3204 8.78653C11.3079 9.00589 11.0829 9.21294 10.8565 9.20713C10.589 9.20027 10.2616 8.84862 10.2752 8.5881C10.2808 8.36856 10.5126 8.16169 10.739 8.1675ZM10.6878 8.28976C10.5093 8.29204 10.3462 8.49381 10.4382 8.65406C10.5168 8.80025 10.6437 8.9408 10.7786 9.03351C10.9404 9.1475 11.1774 9.00941 11.1892 8.81749C11.201 8.62557 10.8868 8.29486 10.6878 8.28976Z" fill="white"/>
<path d="M16.6323 6.19047C16.4269 6.43921 16.1231 6.50693 15.8731 6.34949C15.65 6.21333 15.5616 5.91587 15.6638 5.67822C15.7802 5.42033 16.0997 5.2775 16.372 5.36686C16.4059 5.38146 16.432 5.43705 16.4585 5.47206C16.417 5.48472 16.3683 5.51093 16.3275 5.49615C16.1574 5.43687 16.0122 5.47434 15.8924 5.59484C15.7797 5.70865 15.7419 5.84498 15.7927 6.00418C15.8814 6.29478 16.2293 6.37922 16.4816 6.17974C16.5166 6.15318 16.5785 6.1479 16.627 6.12855C16.6265 6.14914 16.626 6.16972 16.6323 6.19047Z" fill="white"/>
<path d="M15.8421 30.2871C15.5777 30.4245 15.257 30.3476 15.1054 30.1034C14.9603 29.8732 15.0097 29.5518 15.2197 29.3924C15.4438 29.2197 15.8001 29.2494 15.9871 29.4533C16.0136 29.4883 16.012 29.55 16.0245 29.5984C16.0038 29.6047 15.9899 29.6112 15.9691 29.6176C15.9422 29.5963 15.9153 29.575 15.8885 29.5469C15.7211 29.3847 15.5364 29.3593 15.355 29.4714C15.2014 29.5704 15.1276 29.7745 15.1851 29.9407C15.2554 30.1416 15.4313 30.2422 15.6655 30.2139C15.7409 30.2158 15.8389 30.1428 15.8421 30.2871Z" fill="white"/>
<path d="M24.7948 27.8531C24.7109 27.9127 24.627 27.9723 24.5222 28.0452C24.6673 28.2754 24.8057 28.4987 24.951 28.7221C25.004 28.7989 25.0297 28.8683 24.8916 28.899C24.7264 28.6477 24.5614 28.3894 24.3897 28.1242C24.306 28.1769 24.2362 28.2232 24.1596 28.2624C24.1318 28.2754 24.0912 28.2538 24.0569 28.2529C24.0713 28.2258 24.0726 28.1778 24.0935 28.1646C24.2891 28.0323 24.4845 27.9069 24.6798 27.7883C24.7076 27.7753 24.7551 27.7971 24.7961 27.8051C24.8028 27.8121 24.8022 27.8327 24.7948 27.8531Z" fill="white"/>
<path d="M25.2104 7.09025C25.4194 7.23977 25.6217 7.38226 25.8238 7.53161C25.8507 7.55289 25.8423 7.61446 25.8481 7.6558C25.8342 7.66231 25.8205 7.66196 25.7997 7.66829C25.712 7.61112 25.6242 7.55395 25.523 7.4827C25.3381 7.73197 25.1601 7.98141 24.9823 8.22398C24.8595 8.19338 24.8609 8.13849 24.9248 8.05775C25.0454 7.90295 25.1526 7.74094 25.2665 7.5791C25.4018 7.39035 25.3948 7.39703 25.2199 7.25525C25.1795 7.22675 25.1672 7.17152 25.141 7.12279C25.1686 7.11663 25.1895 7.10344 25.2104 7.09025Z" fill="white"/>
<path d="M22.2733 6.80886C22.4054 6.47586 22.5235 6.15623 22.6556 5.82324C22.7032 5.83819 22.7442 5.84611 22.7988 5.86123C22.7029 6.11965 22.6142 6.36451 22.5119 6.60903C22.468 6.71088 22.4941 6.76647 22.5963 6.79655C22.6781 6.81924 22.7527 6.85548 22.8273 6.89172C22.8543 6.90614 22.867 6.94766 22.8799 6.98231C22.8454 6.98829 22.8035 7.01468 22.7762 7.00711C22.6199 6.94818 22.4568 6.88221 22.2733 6.80886Z" fill="white"/>
<path d="M21.8361 29.1982C21.9128 29.4198 21.9825 29.6481 22.0591 29.8698C22.1228 30.0636 22.1228 30.0636 22.3235 30.0001C22.4066 29.9748 22.4827 29.9493 22.6143 29.9046C22.5849 29.9794 22.5834 30.0411 22.5556 30.0542C22.3823 30.1184 22.2094 30.1688 22.0224 30.2327C21.9207 29.9143 21.8118 29.6094 21.7235 29.3051C21.7107 29.2705 21.7601 29.2168 21.7819 29.1693C21.7955 29.1765 21.8159 29.1839 21.8361 29.1982Z" fill="white"/>
<path d="M9.03777 26.0485C9.28985 25.8558 9.52804 25.6697 9.77326 25.4769C9.73368 25.4141 9.70764 25.3585 9.67457 25.3096C9.77308 25.2161 9.77308 25.2161 9.97133 25.5163C9.69814 25.729 9.42513 25.9348 9.1449 26.1542C9.10462 26.1188 9.07806 26.0838 9.03777 26.0485Z" fill="white"/>
<path d="M10.3374 9.91467C10.2934 10.0234 10.2517 10.0429 10.1712 9.97219C10.0033 9.82372 9.83536 9.68211 9.66736 9.5405C9.62708 9.50515 9.58662 9.47665 9.54616 9.44815C9.39875 9.5748 9.39875 9.5748 9.31132 9.50391C9.38221 9.41649 9.45293 9.33592 9.53789 9.23512C9.8 9.45466 10.0619 9.68106 10.3374 9.91467Z" fill="white"/>
<path d="M13.6636 28.5423C13.2676 28.7244 12.8924 28.9001 12.5242 29.0692C12.4894 29.0889 12.435 29.0669 12.3598 29.0581C12.7508 28.8004 13.5417 28.4774 13.6636 28.5423Z" fill="white"/>
<path d="M13.6953 6.13589C13.6496 6.58094 13.5968 7.03268 13.4759 7.46207C13.4487 7.45451 13.4214 7.44695 13.3939 7.44624C13.4877 7.00242 13.5266 6.55719 13.6953 6.13589Z" fill="white"/>
<path d="M13.0568 28.3552C13.0454 28.5334 12.8971 28.6943 12.7393 28.6903C12.5886 28.6796 12.4615 28.5459 12.4719 28.4088C12.4902 28.2308 12.6454 28.07 12.7963 28.0739C12.9539 28.0848 13.0607 28.2042 13.0568 28.3552ZM12.9829 28.2915C12.9425 28.263 12.8897 28.1793 12.8148 28.1567C12.7057 28.1265 12.5643 28.2876 12.5608 28.4248C12.5648 28.5348 12.6179 28.6048 12.7344 28.6146C12.8508 28.6245 12.9712 28.4834 12.9829 28.2915Z" fill="white"/>
<path d="M14.3359 6.86618C14.3324 7.00339 14.1918 7.13022 14.0477 7.12653C13.9038 7.11597 13.7506 6.93355 13.755 6.76204C13.7587 6.61797 13.8921 6.50469 14.043 6.50856C14.2008 6.5126 14.3405 6.68781 14.3359 6.86618ZM13.9939 6.54849C13.9373 6.61569 13.8604 6.66863 13.8379 6.74357C13.8073 6.86636 13.9469 7.04156 14.0567 7.04438C14.1735 7.04051 14.2437 6.98053 14.2536 6.86407C14.2638 6.7339 14.144 6.58666 13.9939 6.54849Z" fill="white"/>
<path d="M13.5717 29.151C13.5673 29.3225 13.4118 29.497 13.2676 29.5002C13.1233 29.5033 12.9895 29.3695 12.993 29.2323C12.9974 29.0607 13.146 28.8861 13.3038 28.8901C13.4481 28.8869 13.5754 29.0069 13.5717 29.151ZM13.3439 28.9323C13.1921 28.9628 13.0577 29.1172 13.0681 29.2479C13.079 29.358 13.146 29.4215 13.2558 29.4243C13.3655 29.4272 13.5209 29.2595 13.4897 29.1352C13.4711 29.0592 13.3972 28.9955 13.3439 28.9323Z" fill="white"/>
<path d="M13.3826 6.82117C13.3787 6.9721 13.2524 7.0787 13.0946 7.07465C12.9437 7.07078 12.7973 6.88853 12.8017 6.71702C12.8053 6.57981 12.9458 6.45298 13.0899 6.45668C13.2408 6.46055 13.387 6.64965 13.3826 6.82117ZM13.1789 7.0013C13.2074 6.96084 13.2844 6.90103 13.3001 6.82591C13.324 6.69609 13.1842 6.52775 13.0742 6.53179C12.971 6.54287 12.8939 6.60268 12.8911 6.71245C12.874 6.84245 13.0005 6.99672 13.1789 7.0013Z" fill="white"/>
<path d="M15.5509 23.9912C15.4689 23.9754 15.4089 23.9052 15.4188 23.7887C15.429 23.6586 15.5263 23.613 15.6223 23.6155C15.7321 23.6183 15.7984 23.7092 15.8023 23.826C15.8065 23.9291 15.7017 24.0019 15.5509 23.9912Z" fill="white"/>
<path d="M21.1759 24.1354C21.0249 24.1316 20.972 24.0547 20.9542 23.9444C20.943 23.848 21.0555 23.741 21.1581 23.7574C21.2675 23.7739 21.3416 23.8308 21.3384 23.9542C21.3352 24.0777 21.2652 24.1309 21.1759 24.1354Z" fill="white"/>
<path d="M18.5732 23.9109C18.5502 24.0064 18.4935 24.0736 18.3702 24.0635C18.2467 24.0604 18.1868 23.9902 18.1829 23.8734C18.1788 23.7634 18.284 23.6769 18.3936 23.6866C18.4964 23.6961 18.5764 23.7874 18.5732 23.9109Z" fill="white"/>
<path d="M17.1735 23.8956C17.1719 23.9573 17.1153 24.0245 16.9916 24.0282C16.868 24.0319 16.808 23.9617 16.8041 23.8449C16.8004 23.7212 16.8708 23.6544 16.9874 23.6574C17.1042 23.6535 17.1783 23.7103 17.1735 23.8956Z" fill="white"/>
<path d="M19.9455 23.9529C19.9367 24.0282 19.8868 24.1024 19.7634 24.0924C19.64 24.0892 19.5798 24.0259 19.583 23.9024C19.5861 23.7789 19.6563 23.7189 19.7731 23.7151C19.8827 23.7248 19.9566 23.7884 19.9455 23.9529Z" fill="white"/>
<circle cx="18.4996" cy="17.943" r="17.4178" transform="rotate(1.46925 18.4996 17.943)" stroke="white" stroke-width="0.164319"/>
</svg>
