<svg width="19" height="24" viewBox="0 0 19 24" fill="none" xmlns="http://www.w3.org/2000/svg">
<path d="M7.00361 8.58431C7.24322 7.98528 7.48283 7.44615 7.72245 6.87707C7.84225 6.63745 7.99201 6.39784 8.17172 6.21813C8.59105 5.82876 9.22003 5.82876 9.66931 6.15823C10.1485 6.4877 10.3582 7.08673 10.1485 7.65581C9.72921 8.67417 9.30989 9.72248 8.86061 10.7408C8.71085 11.0404 8.41133 11.28 8.20167 11.5495C8.14177 11.6394 8.08187 11.7891 8.11182 11.9089C8.26158 12.3582 8.41133 12.8075 8.59105 13.2568C8.89056 14.0355 9.4896 14.4848 10.3282 14.5746C10.5379 14.6046 10.5978 14.6945 10.6577 14.8742C11.0171 16.192 11.3766 17.48 11.736 18.7978C11.9456 19.6065 12.3949 20.1157 13.2036 20.3853C14.3418 20.7447 15.45 21.164 16.5582 21.5534C17.1872 21.7631 17.7862 21.5234 18.0857 20.9843C18.3852 20.4452 18.2654 19.7862 17.7862 19.3969C17.6365 19.2771 17.4268 19.1872 17.2471 19.1273C16.3785 18.8278 15.5398 18.5283 14.6712 18.2288C14.3118 18.109 14.1321 17.8993 14.0123 17.5399C13.6828 16.222 13.2935 14.9341 12.934 13.6162C12.9041 13.4664 12.9041 13.2867 12.964 13.137C13.1437 12.6577 13.1437 12.2085 12.9939 11.7292C12.4249 10.1418 11.8857 8.55436 11.3166 6.96692C10.9273 5.85871 9.81907 5.34953 8.71085 5.70895C8.47124 5.76885 8.26158 5.85871 8.02196 5.94857C6.9437 6.30799 6.46448 7.56596 7.00361 8.58431Z" fill="white"/>
<path d="M8.86061 14.2452C8.26158 15.2935 7.66254 16.3418 7.12341 17.4201C7.00361 17.6597 6.9437 17.9592 6.9437 18.2587C6.91375 19.5466 6.9437 20.8346 6.9437 22.0925C6.9437 22.8413 7.45288 23.3804 8.17172 23.4104C8.86061 23.4403 9.45965 22.9012 9.45965 22.1524C9.4896 21.0442 9.45964 19.936 9.4896 18.8577C9.4896 18.5582 9.57945 18.2587 9.69926 18.0191C9.96882 17.48 10.2384 16.9708 10.5679 16.4916C10.7176 16.2519 10.7476 16.0722 10.6278 15.8326C10.5978 15.7727 10.5978 15.6829 10.5679 15.623C10.508 15.1437 10.3282 14.8143 9.75916 14.7244C9.42969 14.6645 9.16013 14.4249 8.86061 14.2452Z" fill="white"/>
<path d="M7.51278 0.796875C6.19491 0.796875 5.17655 1.84518 5.20651 3.16306C5.20651 4.42103 6.31472 5.49929 7.57269 5.46934C8.83066 5.43939 9.84902 4.39108 9.84902 3.10315C9.84902 1.81523 8.80071 0.796875 7.51278 0.796875Z" fill="white"/>
<path d="M4.96689 12.6877C5.02679 12.6577 5.2065 12.6278 5.35626 12.5679C6.10506 12.2384 6.85385 11.879 7.60264 11.5196C8.11182 11.28 8.47124 10.9205 8.6809 10.3814C9.07027 9.45291 9.45964 8.49446 9.84902 7.56596C9.99877 7.17658 9.93887 6.84712 9.66931 6.5476C9.39974 6.24808 9.07027 6.18818 8.6809 6.30799C8.35143 6.39784 8.17172 6.63745 8.05191 6.93697C7.72245 7.74567 7.39298 8.58431 7.00361 9.39301C6.91375 9.60267 6.70409 9.81233 6.52438 9.90219C5.83549 10.2616 5.11665 10.5611 4.42776 10.9205C4.00844 11.1302 3.79878 11.5795 3.91858 12.0288C4.03839 12.4181 4.42776 12.7176 4.96689 12.6877Z" fill="white"/>
<path d="M11.6761 6.99687C12.0055 7.95533 12.3051 8.82393 12.6345 9.69253C12.8442 10.2616 13.1137 10.8307 13.3833 11.3998C13.6828 11.9689 14.2519 12.0887 14.7611 11.7891C15.2403 11.4896 15.3601 10.9505 15.0307 10.4114C14.6413 9.72248 14.222 9.06354 13.8625 8.4046C13.5331 7.77562 13.0538 7.38625 12.365 7.23649C12.1852 7.14663 11.9756 7.08673 11.6761 6.99687Z" fill="white"/>
<path d="M2.84032 20.2056C2.30119 19.8162 1.37269 19.9959 0.923415 20.535C1.01327 20.4751 1.10312 20.4152 1.19298 20.3553C1.43259 20.1756 1.6123 20.1457 1.88187 20.3553C2.18139 20.565 2.15143 20.8046 2.09153 21.0742C2.03163 21.3138 1.58235 21.4336 1.34274 21.3737C0.923414 21.2539 0.953366 20.8945 0.893462 20.5949C0.444187 21.0442 0.354333 21.5833 0.534043 22.1824C0.414236 21.793 0.683801 21.5833 0.983318 21.4635C1.13308 21.4036 1.46254 21.4336 1.52245 21.5534C1.64226 21.7631 1.64225 22.0326 1.70216 22.3022C1.97172 22.2722 2.27124 22.2423 2.5408 22.2423C2.63066 21.9727 2.75047 21.7031 2.84032 21.4635C2.4809 21.4635 2.18139 21.194 2.18139 20.8945C2.15143 20.5051 2.45095 20.2355 2.84032 20.2056Z" fill="white"/>
<path d="M1.70216 22.2722C1.64225 22.0326 1.64226 21.7331 1.52245 21.5234C1.46254 21.4036 1.13308 21.3737 0.983318 21.4336C0.683801 21.5534 0.414236 21.7631 0.534043 22.1524C0.593946 22.2722 0.6838 22.422 0.743704 22.5418C1.07317 22.6317 1.40264 22.7215 1.64225 22.392C1.64225 22.3621 1.67221 22.3022 1.70216 22.2722Z" fill="white"/>
<path d="M2.84032 21.4036C2.75047 21.6732 2.63066 21.9428 2.5408 22.1824C2.60071 22.2423 2.63066 22.3022 2.69056 22.3321C2.96013 22.6916 3.2896 22.6017 3.64902 22.4819C3.70892 22.2423 3.73887 22.0027 3.79878 21.7631C3.58911 21.5234 3.37945 21.2838 2.99008 21.3138C2.93018 21.3737 2.90023 21.4036 2.84032 21.4036Z" fill="white"/>
<path d="M2.84032 21.4036C2.90023 21.4036 2.93018 21.3737 2.99008 21.3737C3.37945 21.2239 3.37945 20.8945 3.37945 20.565C3.19974 20.4452 3.02003 20.3254 2.84032 20.1756C2.45095 20.2056 2.15143 20.5051 2.15143 20.8346C2.18138 21.1341 2.4809 21.4036 2.84032 21.4036Z" fill="white"/>
<path d="M0.893462 20.565C0.953365 20.8945 0.923414 21.2539 1.34274 21.3437C1.58235 21.4036 2.00167 21.2539 2.09153 21.0442C2.18138 20.7746 2.18139 20.535 1.88187 20.3254C1.6123 20.1457 1.43259 20.1457 1.19298 20.3254C1.10312 20.3853 1.01327 20.4452 0.923414 20.5051C0.923414 20.535 0.923414 20.565 0.893462 20.565Z" fill="white"/>
<path d="M1.64225 22.392C1.37269 22.7215 1.07317 22.6317 0.743704 22.5418C0.893462 23.021 1.25288 23.2007 1.67221 23.3205C1.97172 23.3804 2.30119 23.3205 2.60071 23.3205C2.421 23.3205 2.27124 23.3505 2.09153 23.3205C1.94177 23.2906 1.70216 23.2606 1.64225 23.1408C1.52245 22.9312 1.37269 22.6616 1.64225 22.392Z" fill="white"/>
<path d="M3.37945 20.565C3.37945 20.8945 3.3495 21.2239 2.99008 21.3737C3.3495 21.3138 3.58911 21.5534 3.79878 21.823C3.94853 21.4336 3.76882 20.8945 3.37945 20.565Z" fill="white"/>
<path d="M3.64902 22.5118C3.2896 22.6317 2.96013 22.7215 2.69056 22.3621C2.96013 22.6916 2.69056 23.021 2.60071 23.3205C3.10989 23.2606 3.4094 22.9312 3.64902 22.5118Z" fill="white"/>
<path d="M2.60071 23.3205C2.66061 22.9911 2.93018 22.6916 2.69056 22.3621C2.63066 22.3022 2.60071 22.2423 2.54081 22.2123C2.27124 22.2423 1.97172 22.2722 1.70216 22.2722C1.67221 22.3321 1.67221 22.3621 1.64225 22.422C1.37269 22.6616 1.52245 22.9611 1.64225 23.1708C1.70216 23.2906 1.94177 23.3205 2.09153 23.3505C2.27124 23.3505 2.45095 23.3205 2.60071 23.3205Z" fill="white"/>
</svg>
