<svg width="25" height="14" viewBox="0 0 25 14" fill="none" xmlns="http://www.w3.org/2000/svg">
<g clip-path="url(#clip0_1491_307)">
<path d="M20.955 10.4361C22.5895 8.60941 22.253 6.25391 20.0417 5.43669C18.2149 4.71561 16.4844 3.85033 14.7538 3.08118C13.1193 2.36011 11.7253 2.88889 10.9561 4.52333C10.7638 4.95597 10.6196 5.34055 10.4754 5.77319C10.5235 5.77319 10.5715 5.82126 10.6196 5.82126C10.7638 5.53283 10.86 5.29247 11.0042 5.00404C11.4849 4.13875 12.4463 3.80225 13.3116 4.18683C14.1769 4.5714 14.5134 5.5809 14.1288 6.49426C13.7923 7.26341 13.4078 8.03256 13.0232 8.84977C13.3597 8.99399 13.6001 9.1382 13.9366 9.33049C13.6962 9.42663 13.5039 9.52278 13.3116 9.57085C12.3502 10.0035 11.8214 10.9649 12.0137 11.9744C12.206 13.032 12.9751 13.7531 14.0327 13.8011C15.8594 13.8492 17.6861 13.8492 19.5129 13.8011C20.4743 13.8011 21.1473 13.032 21.0992 12.1186C21.0512 11.2053 20.3782 10.5804 19.3687 10.5323C18.5995 10.5323 17.8784 10.5323 17.1093 10.5323C16.9651 10.5323 16.7728 10.3881 16.6286 10.2919C16.7728 10.2438 16.917 10.0996 17.1093 10.0996C17.9265 10.0996 18.7437 10.0516 19.5129 10.0996C20.0417 10.0996 20.4743 10.2919 20.955 10.4361Z" fill="white"/>
<path d="M10.6667 3.17966C10.6667 1.54522 9.32071 0.199219 7.68628 0.199219C6.05184 0.199219 4.70584 1.54522 4.70584 3.17966C4.70584 4.86216 6.05185 6.20817 7.73435 6.20817C9.36879 6.20817 10.7148 4.86216 10.6667 3.17966Z" fill="white"/>
<path d="M12.5893 4.52734C12.0124 4.52734 11.6279 4.86384 11.3875 5.34456C10.8587 6.40214 10.378 7.50778 9.84921 8.56536C9.56078 9.09415 9.17621 9.57486 8.79164 10.0556C8.26285 10.6324 7.68599 11.1132 7.1572 11.69C6.62841 12.2188 6.62841 12.9399 7.10913 13.4687C7.58984 13.9494 8.31092 13.9975 8.88778 13.5167C9.705 12.7476 10.5222 11.9784 11.3394 11.1612C11.4836 11.017 11.6279 10.8247 11.724 10.5844C12.397 9.23836 13.0219 7.84429 13.6949 6.49828C14.0795 5.4407 13.5507 4.52734 12.5893 4.52734Z" fill="white"/>
<path d="M4.51367 9.91016C3.7926 9.91016 3.07152 9.91016 2.35045 9.91016C2.06202 9.91016 1.9178 10.2467 2.11009 10.5351C2.25431 10.7754 2.35045 11.0639 2.49466 11.4484C2.15816 11.4484 2.01395 11.4965 1.82166 11.4965C1.86973 11.2081 1.86973 10.9197 1.9178 10.6312C1.67745 10.6312 1.43709 10.6312 1.29287 10.6312C1.19673 11.16 1.10059 11.6888 1.00444 12.2176C1.00444 12.3137 0.956371 12.4099 0.860228 12.458C0.379512 12.6502 0.619871 12.9387 0.812157 13.2752C0.860229 13.131 0.908301 13.0348 0.908301 12.8906C1.05252 12.458 1.34095 12.2176 1.77359 12.2176C2.20623 12.2176 2.49466 12.458 2.63888 12.8906C2.68695 13.0348 2.87924 13.179 2.97538 13.2752C3.07152 13.131 3.16767 13.0348 3.31188 12.8906C3.60031 12.6022 3.84067 12.3137 4.22524 11.9292C4.27331 11.4004 4.36946 10.6793 4.51367 9.91016Z" fill="white"/>
<path d="M21.0984 13.6582C21.6272 13.6582 22.0599 13.6582 22.4925 13.6582C23.4059 13.6102 24.127 12.9372 24.127 12.0719C24.127 11.2547 23.502 10.4855 22.5887 10.4374C22.156 10.3894 21.6753 10.2451 21.4349 10.7739C21.3869 10.8701 21.3388 11.0143 21.3869 11.1104C21.8195 11.9277 21.7234 12.7449 21.0984 13.6582Z" fill="white"/>
<path d="M9.65605 13.3712C10.1848 13.8519 10.7136 13.9 11.1943 13.6596C12.1077 13.1308 11.627 12.4098 11.4828 11.6406C10.8578 12.2175 10.281 12.7943 9.65605 13.3712Z" fill="white"/>
<path d="M1.67812 13.8042C2.15883 13.8042 2.39919 13.5639 2.44727 13.1312C2.44727 12.6986 2.20691 12.4102 1.77426 12.4102C1.34162 12.4102 1.05319 12.6505 1.05319 13.0832C1.00512 13.5158 1.24547 13.7562 1.67812 13.8042Z" fill="white"/>
<path d="M4.08188 13.8042C4.51452 13.7562 4.75488 13.5639 4.75488 13.1312C4.75488 12.6986 4.51452 12.4582 4.08188 12.4102C3.64924 12.4102 3.40888 12.6986 3.40888 13.0832C3.40888 13.5158 3.69731 13.7562 4.08188 13.8042Z" fill="white"/>
</g>
<defs>
<clipPath id="clip0_1491_307">
<rect width="23.6032" height="13.6043" fill="white" transform="matrix(-1 0 0 1 24.127 0.199219)"/>
</clipPath>
</defs>
</svg>
