<svg width="40" height="41" viewBox="0 0 40 41" fill="none" xmlns="http://www.w3.org/2000/svg">
<mask id="path-1-inside-1_1011_319" fill="white">
<path d="M6.38591 0.046875C7.37967 0.564901 8.36287 1.07235 9.35663 1.59038C10.0967 1.98154 10.4667 2.60529 10.4984 3.44047C10.4984 3.55676 10.5618 3.71534 10.6464 3.75763C12.1371 4.59281 13.6066 5.49143 15.3509 5.72401C16.7253 5.90374 18.0996 6.02003 19.4634 6.23147C20.4466 6.37947 21.4404 6.56977 22.3813 6.88693C23.8508 7.37324 24.9397 8.37757 25.7009 9.73078C26.6206 11.3694 27.551 13.0081 28.4813 14.6467C28.6927 15.0273 28.9359 15.3868 29.179 15.7462C30.49 17.7655 30.6485 19.8587 29.5913 22.0365C29.5385 22.1423 29.4856 22.248 29.4328 22.3537C29.4328 22.3643 29.4328 22.3748 29.4539 22.4277C29.5808 22.4383 29.7182 22.4488 29.8556 22.4488C32.6361 22.4488 35.4165 22.4488 38.2075 22.4488C38.9264 22.4488 39.233 22.7449 39.233 23.4426C39.233 28.274 39.2435 33.0948 39.233 37.9262C39.233 39.512 38.1546 40.5692 36.5688 40.5692C28.6187 40.5692 20.6686 40.5692 12.7079 40.5692C11.1433 40.5692 10.0755 39.512 10.0649 37.9473C10.0544 33.1159 10.0649 28.2951 10.0649 23.4637C10.0649 22.7449 10.361 22.4488 11.0693 22.4488C13.5748 22.4488 16.0804 22.4488 18.5859 22.4488C18.7234 22.4488 18.8714 22.4488 18.9877 22.4488C18.7657 21.8251 18.5542 21.2225 18.3216 20.6305C18.2794 20.5353 18.1736 20.4507 18.0785 20.3873C15.7209 18.9812 13.4797 17.3637 10.9953 16.1691C9.75836 15.5771 8.87032 14.5939 8.14086 13.4415C7.58054 12.5535 7.05194 12.046 6.37534 11.7077C5.92075 12.4161 5.297 12.8389 4.44067 12.7755C4.13409 12.7544 3.81693 12.6486 3.54206 12.5112C2.71744 12.0989 1.91398 11.6549 1.09994 11.2109C0.0638844 10.64 -0.295562 9.51934 0.25418 8.47272C1.54396 6.0306 2.85488 3.59905 4.13409 1.14636C4.44067 0.575472 4.92698 0.258314 5.51901 0.046875C5.80445 0.046875 6.0899 0.046875 6.38591 0.046875ZM37.5837 28.7497C37.3723 28.7497 37.2031 28.7497 37.034 28.7497C32.4669 28.7497 27.9104 28.7497 23.3433 28.7497C22.6139 28.7497 22.2121 28.4537 22.2227 27.9357C22.2227 27.4177 22.6244 27.1322 23.3539 27.1322C27.9315 27.1322 32.5092 27.1322 37.0763 27.1322C37.2349 27.1322 37.3829 27.1322 37.552 27.1322C37.552 26.0856 37.552 25.0918 37.552 24.0769C28.9147 24.0769 20.2986 24.0769 11.6825 24.0769C11.6825 25.1024 11.6825 26.0962 11.6825 27.1322C11.8516 27.1322 11.989 27.1322 12.1371 27.1322C13.3423 27.1322 14.5369 27.1111 15.7315 27.1428C16.0064 27.1534 16.313 27.2908 16.535 27.4599C16.7676 27.6502 16.7781 27.978 16.6407 28.2634C16.4716 28.6229 16.165 28.7391 15.8055 28.7497C14.6532 28.7497 13.5114 28.7497 12.3591 28.7497C12.1371 28.7497 11.915 28.7497 11.6825 28.7497C11.6719 28.9083 11.6613 29.0246 11.6613 29.1409C11.6613 32.0587 11.6613 34.966 11.6613 37.8839C11.6613 38.6556 11.989 38.9834 12.7714 38.9834C20.6686 38.9834 28.5659 38.9834 36.4631 38.9834C37.2454 38.9834 37.5732 38.6556 37.5732 37.8839C37.5732 36.0126 37.5732 34.1414 37.5732 32.2702C37.5837 31.1178 37.5837 29.9655 37.5837 28.7497ZM7.1048 10.27C8.33115 10.936 9.1029 11.9932 9.83237 13.1032C10.287 13.8116 10.9213 14.3719 11.6825 14.7313C13.818 15.7462 15.7527 17.0994 17.7613 18.3152C18.3428 18.6747 18.9348 19.0235 19.5268 19.3618C19.8334 19.5416 20.0237 19.4464 20.1083 19.1081C20.14 18.9918 20.1612 18.8755 20.1612 18.7592C20.1612 17.7549 19.8229 16.8774 19.1357 16.148C18.2054 15.1648 17.2433 14.2027 16.3235 13.209C15.3404 12.1518 15.6364 10.9677 17.0002 10.5448C17.9833 10.2382 18.9877 10.1642 20.0026 10.418C21.2712 10.7245 22.0535 11.6126 22.6667 12.6698C22.9204 13.1032 23.153 13.2724 23.6922 13.2195C24.4005 13.1455 25.1194 13.2618 25.8489 13.2935C25.8277 13.2407 25.796 13.1561 25.7537 13.0821C25.2674 12.2258 24.7705 11.3694 24.2948 10.5131C23.6182 9.3079 22.6139 8.48329 21.2712 8.21899C19.6114 7.89126 17.9199 7.71154 16.239 7.48953C14.5792 7.27809 12.9828 6.90807 11.5133 6.07289C10.9636 5.7663 10.4138 5.48086 9.83237 5.1637C8.91261 6.85521 8.02456 8.52558 7.1048 10.27ZM20.0977 21.0956C20.3515 21.4656 20.584 21.8039 20.8166 22.1423C20.9752 22.3748 21.1866 22.4594 21.4827 22.4488C23.301 22.4383 25.1194 22.4383 26.9378 22.4488C27.2232 22.4488 27.403 22.3537 27.5721 22.1423C28.217 21.3494 28.587 20.4613 28.6399 19.4358C28.735 17.6809 27.7624 16.0105 26.1766 15.2176C24.5697 14.4247 22.635 14.6573 21.2924 15.8097C21.1021 15.9788 21.0598 16.1057 21.1761 16.3383C21.5778 17.1206 21.7787 17.9663 21.7258 18.8544C21.6835 19.9327 21.2501 20.7256 20.0977 21.0956ZM1.57567 9.47705C1.69196 9.60392 1.80826 9.7625 1.95626 9.84707C2.71744 10.27 3.47863 10.6717 4.25038 11.0734C4.63097 11.2743 4.77898 11.232 4.97984 10.8514C6.24848 8.47272 7.51711 6.09403 8.77517 3.71534C8.97604 3.33475 8.92318 3.17617 8.55316 2.97531C7.80255 2.57357 7.04137 2.17184 6.29076 1.7701C5.86789 1.54809 5.73045 1.59038 5.50844 2.00269C4.25038 4.3708 2.99232 6.72835 1.74482 9.08589C1.69197 9.18104 1.64968 9.29733 1.57567 9.47705ZM21.4615 13.7693C20.5312 12.0038 18.8714 11.306 17.4865 12.12C18.3428 13.0081 19.1991 13.8961 20.0343 14.763C20.5312 14.4142 20.9963 14.0864 21.4615 13.7693Z"/>
</mask>
<path d="M6.38591 0.046875C7.37967 0.564901 8.36287 1.07235 9.35663 1.59038C10.0967 1.98154 10.4667 2.60529 10.4984 3.44047C10.4984 3.55676 10.5618 3.71534 10.6464 3.75763C12.1371 4.59281 13.6066 5.49143 15.3509 5.72401C16.7253 5.90374 18.0996 6.02003 19.4634 6.23147C20.4466 6.37947 21.4404 6.56977 22.3813 6.88693C23.8508 7.37324 24.9397 8.37757 25.7009 9.73078C26.6206 11.3694 27.551 13.0081 28.4813 14.6467C28.6927 15.0273 28.9359 15.3868 29.179 15.7462C30.49 17.7655 30.6485 19.8587 29.5913 22.0365C29.5385 22.1423 29.4856 22.248 29.4328 22.3537C29.4328 22.3643 29.4328 22.3748 29.4539 22.4277C29.5808 22.4383 29.7182 22.4488 29.8556 22.4488C32.6361 22.4488 35.4165 22.4488 38.2075 22.4488C38.9264 22.4488 39.233 22.7449 39.233 23.4426C39.233 28.274 39.2435 33.0948 39.233 37.9262C39.233 39.512 38.1546 40.5692 36.5688 40.5692C28.6187 40.5692 20.6686 40.5692 12.7079 40.5692C11.1433 40.5692 10.0755 39.512 10.0649 37.9473C10.0544 33.1159 10.0649 28.2951 10.0649 23.4637C10.0649 22.7449 10.361 22.4488 11.0693 22.4488C13.5748 22.4488 16.0804 22.4488 18.5859 22.4488C18.7234 22.4488 18.8714 22.4488 18.9877 22.4488C18.7657 21.8251 18.5542 21.2225 18.3216 20.6305C18.2794 20.5353 18.1736 20.4507 18.0785 20.3873C15.7209 18.9812 13.4797 17.3637 10.9953 16.1691C9.75836 15.5771 8.87032 14.5939 8.14086 13.4415C7.58054 12.5535 7.05194 12.046 6.37534 11.7077C5.92075 12.4161 5.297 12.8389 4.44067 12.7755C4.13409 12.7544 3.81693 12.6486 3.54206 12.5112C2.71744 12.0989 1.91398 11.6549 1.09994 11.2109C0.0638844 10.64 -0.295562 9.51934 0.25418 8.47272C1.54396 6.0306 2.85488 3.59905 4.13409 1.14636C4.44067 0.575472 4.92698 0.258314 5.51901 0.046875C5.80445 0.046875 6.0899 0.046875 6.38591 0.046875ZM37.5837 28.7497C37.3723 28.7497 37.2031 28.7497 37.034 28.7497C32.4669 28.7497 27.9104 28.7497 23.3433 28.7497C22.6139 28.7497 22.2121 28.4537 22.2227 27.9357C22.2227 27.4177 22.6244 27.1322 23.3539 27.1322C27.9315 27.1322 32.5092 27.1322 37.0763 27.1322C37.2349 27.1322 37.3829 27.1322 37.552 27.1322C37.552 26.0856 37.552 25.0918 37.552 24.0769C28.9147 24.0769 20.2986 24.0769 11.6825 24.0769C11.6825 25.1024 11.6825 26.0962 11.6825 27.1322C11.8516 27.1322 11.989 27.1322 12.1371 27.1322C13.3423 27.1322 14.5369 27.1111 15.7315 27.1428C16.0064 27.1534 16.313 27.2908 16.535 27.4599C16.7676 27.6502 16.7781 27.978 16.6407 28.2634C16.4716 28.6229 16.165 28.7391 15.8055 28.7497C14.6532 28.7497 13.5114 28.7497 12.3591 28.7497C12.1371 28.7497 11.915 28.7497 11.6825 28.7497C11.6719 28.9083 11.6613 29.0246 11.6613 29.1409C11.6613 32.0587 11.6613 34.966 11.6613 37.8839C11.6613 38.6556 11.989 38.9834 12.7714 38.9834C20.6686 38.9834 28.5659 38.9834 36.4631 38.9834C37.2454 38.9834 37.5732 38.6556 37.5732 37.8839C37.5732 36.0126 37.5732 34.1414 37.5732 32.2702C37.5837 31.1178 37.5837 29.9655 37.5837 28.7497ZM7.1048 10.27C8.33115 10.936 9.1029 11.9932 9.83237 13.1032C10.287 13.8116 10.9213 14.3719 11.6825 14.7313C13.818 15.7462 15.7527 17.0994 17.7613 18.3152C18.3428 18.6747 18.9348 19.0235 19.5268 19.3618C19.8334 19.5416 20.0237 19.4464 20.1083 19.1081C20.14 18.9918 20.1612 18.8755 20.1612 18.7592C20.1612 17.7549 19.8229 16.8774 19.1357 16.148C18.2054 15.1648 17.2433 14.2027 16.3235 13.209C15.3404 12.1518 15.6364 10.9677 17.0002 10.5448C17.9833 10.2382 18.9877 10.1642 20.0026 10.418C21.2712 10.7245 22.0535 11.6126 22.6667 12.6698C22.9204 13.1032 23.153 13.2724 23.6922 13.2195C24.4005 13.1455 25.1194 13.2618 25.8489 13.2935C25.8277 13.2407 25.796 13.1561 25.7537 13.0821C25.2674 12.2258 24.7705 11.3694 24.2948 10.5131C23.6182 9.3079 22.6139 8.48329 21.2712 8.21899C19.6114 7.89126 17.9199 7.71154 16.239 7.48953C14.5792 7.27809 12.9828 6.90807 11.5133 6.07289C10.9636 5.7663 10.4138 5.48086 9.83237 5.1637C8.91261 6.85521 8.02456 8.52558 7.1048 10.27ZM20.0977 21.0956C20.3515 21.4656 20.584 21.8039 20.8166 22.1423C20.9752 22.3748 21.1866 22.4594 21.4827 22.4488C23.301 22.4383 25.1194 22.4383 26.9378 22.4488C27.2232 22.4488 27.403 22.3537 27.5721 22.1423C28.217 21.3494 28.587 20.4613 28.6399 19.4358C28.735 17.6809 27.7624 16.0105 26.1766 15.2176C24.5697 14.4247 22.635 14.6573 21.2924 15.8097C21.1021 15.9788 21.0598 16.1057 21.1761 16.3383C21.5778 17.1206 21.7787 17.9663 21.7258 18.8544C21.6835 19.9327 21.2501 20.7256 20.0977 21.0956ZM1.57567 9.47705C1.69196 9.60392 1.80826 9.7625 1.95626 9.84707C2.71744 10.27 3.47863 10.6717 4.25038 11.0734C4.63097 11.2743 4.77898 11.232 4.97984 10.8514C6.24848 8.47272 7.51711 6.09403 8.77517 3.71534C8.97604 3.33475 8.92318 3.17617 8.55316 2.97531C7.80255 2.57357 7.04137 2.17184 6.29076 1.7701C5.86789 1.54809 5.73045 1.59038 5.50844 2.00269C4.25038 4.3708 2.99232 6.72835 1.74482 9.08589C1.69197 9.18104 1.64968 9.29733 1.57567 9.47705ZM21.4615 13.7693C20.5312 12.0038 18.8714 11.306 17.4865 12.12C18.3428 13.0081 19.1991 13.8961 20.0343 14.763C20.5312 14.4142 20.9963 14.0864 21.4615 13.7693Z" fill="#9BCA41" stroke="#9BCA41" stroke-width="4" mask="url(#path-1-inside-1_1011_319)"/>
</svg>
