<svg width="36" height="36" viewBox="0 0 36 36" fill="none" xmlns="http://www.w3.org/2000/svg">
<g clip-path="url(#clip0_1011_325)">
<path d="M18.1989 0.601562C27.9049 0.683126 35.8981 8.43163 35.8981 18.3008C35.8981 28.0068 28.2311 35.8369 18.362 36C8.57441 36.0816 0.581212 28.1699 0.499648 18.3823C0.418085 8.59476 8.32972 0.683126 18.1989 0.601562ZM17.8726 3.04846C17.2201 3.13002 16.2414 3.21159 15.2626 3.37471C6.45376 5.00598 0.989028 14.1411 3.59905 22.7052C3.9253 23.8471 4.25156 24.989 5.06719 25.8862C8.98222 30.5353 13.9576 32.4928 19.9933 31.2693C28.8021 29.5565 34.1037 20.5846 31.5752 12.0204C31.249 10.8785 30.8412 9.73664 30.1071 8.83945C27.0893 5.08754 23.0111 3.21159 17.8726 3.04846Z" fill="#9BCA41"/>
<path d="M19.422 17.0782C19.5851 17.0782 19.7483 17.0782 19.8298 17.0782C22.1136 17.0782 24.3158 17.0782 26.5996 17.0782C27.2521 17.0782 27.7415 17.486 27.823 18.1385C27.9046 18.7094 27.4968 19.2804 26.9258 19.4435C26.7627 19.525 26.5996 19.525 26.4365 19.525C23.6633 19.525 20.9717 19.525 18.1986 19.525C17.3829 19.525 16.8936 19.0357 16.8936 18.1385C16.8936 14.7944 16.8936 11.5319 16.8936 8.18776C16.8936 7.37213 17.3829 6.80119 18.117 6.88275C18.8511 6.88275 19.3405 7.45369 19.3405 8.18776C19.3405 10.9609 19.3405 13.7341 19.3405 16.5072C19.422 16.6703 19.422 16.8335 19.422 17.0782Z" fill="#9BCA41"/>
</g>
<defs>
<clipPath id="clip0_1011_325">
<rect width="35.3984" height="35.3984" fill="white" transform="translate(0.5 0.601562)"/>
</clipPath>
</defs>
</svg>
