<svg width="18" height="40" viewBox="0 0 18 40" fill="none" xmlns="http://www.w3.org/2000/svg">
<path d="M9.01648 22.732C8.94906 23.1141 8.83668 23.5186 8.81421 23.9007C8.79174 28.2157 8.81421 32.5083 8.79174 36.8234C8.79174 37.3178 8.79173 37.8123 8.65689 38.2618C8.40967 39.2057 7.69049 39.7001 6.74657 39.7001C5.80265 39.7001 5.06099 39.2731 4.7913 38.3067C4.65646 37.8572 4.63398 37.3403 4.63398 36.8683C4.63398 29.5642 4.63398 22.26 4.63398 14.9559C4.63398 14.5513 4.63398 14.1468 4.63398 13.7422C4.54408 13.7198 4.47666 13.6973 4.38676 13.6748C4.27439 14.0344 4.07212 14.3715 4.04965 14.7536C3.86985 17.3157 3.71253 19.9002 3.55521 22.4623C3.53274 22.7545 3.62264 23.0691 3.57769 23.3613C3.51026 24.1254 3.10573 24.6423 2.29665 24.6648C1.51005 24.6873 0.993137 24.2378 0.948188 23.4512C0.745919 19.9002 0.656022 16.3268 1.75726 12.8657C2.02696 12.0342 2.47644 11.2251 2.97088 10.4835C3.75748 9.3148 4.8812 8.75294 6.31956 8.77542C8.07256 8.79789 9.84803 8.84284 11.601 8.77542C13.6012 8.68552 14.9272 9.62944 15.8487 11.315C16.9274 13.2703 17.2196 15.4278 17.3545 17.6078C17.4668 19.4058 17.3769 21.2037 17.3769 23.0017C17.3769 23.9231 17.0398 24.6423 15.9835 24.6873C15.1295 24.7322 14.7025 23.9906 14.6575 22.8444C14.6126 20.4621 14.5227 18.0573 14.3878 15.675C14.3429 14.9559 14.0732 14.2592 13.6462 13.5625C13.6237 13.8321 13.6012 14.1018 13.6012 14.3715C13.6012 21.9004 13.6012 29.4293 13.6012 36.9582C13.6012 37.2279 13.6012 37.4752 13.5788 37.7449C13.4889 38.936 12.6798 39.7226 11.5786 39.7451C10.4773 39.7675 9.57834 38.9809 9.48844 37.8123C9.42102 36.8459 9.46597 35.857 9.46597 34.8906C9.46597 31.2498 9.46597 27.6314 9.46597 23.9906C9.46597 23.586 9.37607 23.1815 9.30865 22.7769C9.28617 22.732 9.15133 22.732 9.01648 22.732ZM8.49957 12.6635C8.27483 14.2592 8.2074 15.8548 7.82534 17.3606C7.44327 18.9113 8.07256 19.9227 9.19627 20.934C10.0728 19.9676 10.9493 19.181 10.5447 17.6303C10.2076 16.3493 10.0952 14.9783 10.0053 13.6299C9.9604 12.6185 9.53339 12.3488 8.49957 12.6635ZM10.4773 11.315C9.82555 10.8655 9.48844 10.461 9.1738 10.461C8.90411 10.461 8.65689 10.9779 8.3872 11.2476C8.65689 11.4948 8.92658 11.8769 9.24122 11.9443C9.48844 12.0117 9.82555 11.6746 10.4773 11.315Z" fill="#9BCA41"/>
<path d="M9.30819 0.414977C11.3534 0.459925 12.9715 2.1455 12.949 4.19067C12.9041 6.28078 11.1736 7.94388 9.08345 7.87646C7.03828 7.80904 5.4426 6.12346 5.46508 4.07829C5.46508 1.98818 7.17313 0.370028 9.30819 0.414977Z" fill="#9BCA41"/>
</svg>
