<svg width="29" height="28" viewBox="0 0 29 28" fill="none" xmlns="http://www.w3.org/2000/svg">
<g opacity="0.7" clip-path="url(#clip0_414_297)">
<path fill-rule="evenodd" clip-rule="evenodd" d="M15.3261 3.5C15.9147 3.49981 16.4817 3.72214 16.9134 4.12241C17.345 4.52269 17.6094 5.07132 17.6536 5.65833L17.6594 5.83333V22.1667H18.8261V11.0833C18.826 10.9468 18.8739 10.8146 18.9613 10.7097C19.0487 10.6048 19.1701 10.5339 19.3044 10.5093L19.4094 10.5H21.1594C21.7481 10.4998 22.3151 10.7221 22.7467 11.1224C23.1783 11.5227 23.4427 12.0713 23.4869 12.6583L23.4927 12.8333V22.1667H24.6594C24.9568 22.167 25.2428 22.2809 25.459 22.485C25.6752 22.6891 25.8053 22.9681 25.8228 23.265C25.8402 23.5618 25.7436 23.8541 25.5527 24.0821C25.3619 24.3102 25.0912 24.4567 24.7959 24.4918L24.6594 24.5H3.65939C3.36203 24.4997 3.07602 24.3858 2.8598 24.1817C2.64357 23.9775 2.51345 23.6986 2.49603 23.4017C2.4786 23.1049 2.57518 22.8126 2.76604 22.5845C2.95689 22.3565 3.22761 22.21 3.52289 22.1748L3.65939 22.1667H4.82606V5.83333C4.82587 5.24466 5.0482 4.67767 5.44847 4.24603C5.84874 3.81438 6.39738 3.54998 6.98439 3.50583L7.15939 3.5H15.3261ZM12.9927 17.5H9.49273V19.8333H12.9927V17.5ZM12.9927 12.8333H9.49273V15.1667H12.9927V12.8333ZM12.9927 8.16667H9.49273V10.5H12.9927V8.16667Z" fill="#18193D"/>
</g>
<defs>
<clipPath id="clip0_414_297">
<rect width="28" height="28" fill="white" transform="translate(0.159424)"/>
</clipPath>
</defs>
</svg>
