<svg width="25" height="24" viewBox="0 0 25 24" fill="none" xmlns="http://www.w3.org/2000/svg">
<path d="M20.96 3.49206C19.8598 2.38078 18.5494 1.49967 17.1052 0.90013C15.6609 0.300592 14.1118 -0.00537612 12.548 7.14833e-05C5.99604 7.14833e-05 0.656059 5.34005 0.656059 11.892C0.656059 13.992 1.20806 16.032 2.24005 17.832L0.560059 24L6.86004 22.344C8.60003 23.292 10.556 23.796 12.548 23.796C19.1 23.796 24.44 18.456 24.44 11.904C24.44 8.72405 23.204 5.73605 20.96 3.49206ZM12.548 21.78C10.772 21.78 9.03203 21.3 7.50804 20.4L7.14804 20.184L3.40405 21.168L4.40005 17.52L4.16005 17.148C3.17335 15.5724 2.64942 13.7511 2.64805 11.892C2.64805 6.44405 7.08804 2.00407 12.536 2.00407C15.176 2.00407 17.66 3.03606 19.52 4.90806C20.441 5.82481 21.1708 6.91525 21.6673 8.11616C22.1637 9.31707 22.4168 10.6046 22.412 11.904C22.436 17.352 17.996 21.78 12.548 21.78ZM17.972 14.388C17.672 14.244 16.208 13.524 15.944 13.416C15.668 13.32 15.476 13.272 15.272 13.56C15.068 13.86 14.504 14.532 14.336 14.724C14.168 14.928 13.988 14.952 13.688 14.796C13.388 14.652 12.428 14.328 11.3 13.32C10.412 12.528 9.82403 11.556 9.64403 11.256C9.47603 10.956 9.62003 10.8 9.77603 10.644C9.90803 10.512 10.076 10.296 10.22 10.128C10.364 9.96004 10.424 9.82804 10.52 9.63604C10.616 9.43204 10.568 9.26404 10.496 9.12004C10.424 8.97605 9.82403 7.51205 9.58403 6.91205C9.34403 6.33605 9.09203 6.40805 8.91203 6.39605H8.33604C8.13204 6.39605 7.82004 6.46805 7.54404 6.76805C7.28004 7.06805 6.51204 7.78805 6.51204 9.25204C6.51204 10.716 7.58004 12.132 7.72404 12.324C7.86804 12.528 9.82403 15.528 12.8 16.812C13.508 17.124 14.06 17.304 14.492 17.436C15.2 17.664 15.848 17.628 16.364 17.556C16.94 17.472 18.128 16.836 18.368 16.14C18.62 15.444 18.62 14.856 18.536 14.724C18.452 14.592 18.272 14.532 17.972 14.388Z" fill="white"/>
</svg>
