<svg width="50" height="49" viewBox="0 0 50 49" fill="none" xmlns="http://www.w3.org/2000/svg">
<path d="M1.59277 49.0026C0.78784 48.6065 0.519531 47.9677 0.519531 47.0733C0.545084 40.225 0.532308 33.364 0.532308 26.5157C0.532308 25.3531 1.0817 24.8037 2.25715 24.7909C3.07485 24.7909 3.87978 24.7781 4.69748 24.7909C4.95302 24.7909 5.08078 24.7398 5.15744 24.4459C5.4002 23.4877 6.20513 22.9 7.2017 22.9C11.4563 22.9 15.7109 22.9 19.9655 22.9C20.9366 22.9 21.6648 23.4494 21.9587 24.382C22.0481 24.6504 22.1503 24.7653 22.4442 24.7526C23.0319 24.727 23.6197 24.7398 24.2713 24.7398C24.2713 24.5481 24.2713 24.3693 24.2713 24.2032C24.2713 22.4656 24.2713 20.7279 24.284 18.9903C24.284 17.7127 24.8462 17.1505 26.1239 17.1505C26.3666 17.1505 26.5966 17.1505 26.8777 17.1505C26.8905 17.0099 26.9032 16.8822 26.9032 16.7672C26.8777 15.004 26.8521 13.2281 26.801 11.4649C26.7755 10.5833 27.1077 9.90614 27.8359 9.39507C29.4841 8.24518 31.1195 7.08251 32.7549 5.91983C33.8154 5.17879 34.8503 5.25545 35.7702 6.17537C36.243 6.6481 36.7029 7.13361 37.2012 7.6319C37.7761 7.05695 38.3128 6.52033 38.8494 5.97094C38.9133 5.90706 38.9899 5.80484 38.9771 5.72818C38.8877 5.14046 39.2838 4.82104 39.6288 4.47608C40.8809 3.22397 42.133 1.97186 43.3851 0.719749C44.0495 0.0553654 44.8544 -0.149061 45.7615 0.106472C46.6687 0.362004 47.2181 0.988058 47.4353 1.8952C47.6269 2.70012 47.4353 3.44117 46.8603 4.01612C45.4804 5.43432 44.075 6.8142 42.6696 8.21962C42.5546 8.33461 42.4013 8.46238 42.2735 8.46238C41.6347 8.4496 41.3408 8.92234 40.9575 9.29286C40.6253 9.61228 40.2931 9.93169 39.8715 10.3533C40.3315 10.7877 40.7787 11.1838 41.2003 11.6054C42.3502 12.7425 42.4268 13.6497 41.4814 14.9785C40.9959 15.6812 40.4976 16.3711 39.9482 17.1633C40.2165 17.1633 40.3826 17.1633 40.5487 17.1633C42.8229 17.1633 45.1099 17.1888 47.3842 17.1505C48.3041 17.1377 49.0323 17.3549 49.4795 18.1982C49.4795 21.4562 49.4795 24.7015 49.4795 27.9595C49.1857 28.2023 48.9046 28.4833 48.483 28.2917C48.023 28.0873 48.0358 27.6912 48.0485 27.2696C48.0613 26.9374 48.0485 26.6052 48.0485 26.2602C43.2318 26.2602 38.4533 26.2602 33.7004 26.2602C33.7004 28.3045 33.7004 30.3232 33.7004 32.3291C38.5044 32.3291 43.2573 32.3291 48.0485 32.3291C48.0485 31.9458 48.0613 31.5753 48.0485 31.2175C48.023 30.7959 48.0997 30.4382 48.5341 30.2848C48.9685 30.1315 49.2623 30.3743 49.4795 30.732C49.4795 36.4687 49.4795 42.2054 49.4795 47.9421C49.1346 48.2871 48.7768 48.6448 48.4318 48.9898C32.8316 49.0026 17.2058 49.0026 1.59277 49.0026ZM16.337 41.4261C16.0048 41.4261 15.7109 41.4261 15.4171 41.4261C14.8677 41.4133 14.5355 41.145 14.5099 40.7106C14.4972 40.2762 14.8293 39.9823 15.366 39.9567C15.4937 39.944 15.6215 39.9567 15.7493 39.9567C18.394 39.9567 21.0388 39.9567 23.6835 39.9567C23.8624 39.9567 24.0541 39.9567 24.2457 39.9567C24.2457 37.8869 24.2457 35.881 24.2457 33.8495C22.6231 33.8495 21.026 33.8495 19.5567 33.8495C19.3395 34.5011 19.2245 35.1272 18.9179 35.6638C18.5729 36.2643 17.9341 36.5709 17.2441 36.4815C16.7842 36.4176 16.2731 36.2515 15.9026 35.9832C15.2126 35.4849 15.1104 34.6928 15.1743 33.8623C13.3984 33.8623 11.6735 33.8623 9.94868 33.8623C9.94868 35.9066 9.94868 37.9253 9.94868 39.9695C10.1403 39.9695 10.2936 39.9695 10.4597 39.9695C10.9708 39.9823 11.4819 39.9567 11.9929 39.9951C12.389 40.0334 12.619 40.2889 12.619 40.6978C12.619 41.1194 12.3762 41.3366 11.9929 41.4261C11.8396 41.4644 11.6735 41.4388 11.5202 41.4388C8.54325 41.4388 5.56629 41.4388 2.57657 41.4388C2.39769 41.4388 2.20604 41.4388 2.0144 41.4388C2.0144 43.5086 2.0144 45.5273 2.0144 47.5588C6.80563 47.5588 11.5585 47.5588 16.3498 47.5588C16.337 45.5018 16.337 43.4831 16.337 41.4261ZM36.2046 8.65403C35.668 8.13019 35.1825 7.65745 34.697 7.17194C34.3648 6.83975 34.0198 6.8142 33.6365 7.09528C31.9756 8.27073 30.3018 9.4334 28.6536 10.6344C28.4748 10.7622 28.2831 11.0433 28.2831 11.2477C28.2959 13.6497 28.3342 16.0517 28.3853 18.4665C28.3981 18.9264 28.6664 19.1692 29.1136 19.182C31.4901 19.2331 33.8537 19.2714 36.2302 19.2969C36.4346 19.2969 36.7412 19.1947 36.8562 19.0286C38.0956 17.3166 39.3093 15.579 40.5231 13.8541C40.7275 13.5602 40.7275 13.2408 40.472 12.9725C39.9737 12.4359 39.4627 11.9248 38.9771 11.4393C38.8877 11.4521 38.8622 11.4521 38.8494 11.4649C38.1722 12.142 37.4951 12.8192 36.8051 13.4708C36.0257 14.2119 34.8886 14.2119 34.1348 13.4964C33.3299 12.7425 33.3171 11.5543 34.122 10.7238C34.7992 10.0211 35.4891 9.35674 36.2046 8.65403ZM48.0485 41.4516C43.2445 41.4516 38.4916 41.4516 33.7004 41.4516C33.7004 43.4831 33.7004 45.5018 33.7004 47.5333C38.4916 47.5333 43.2573 47.5333 48.0485 47.5333C48.0485 45.5018 48.0485 43.4959 48.0485 41.4516ZM40.1143 33.8367C35.323 33.8367 30.5701 33.8367 25.8045 33.8367C25.8045 35.881 25.8045 37.8869 25.8045 39.9184C30.5957 39.9184 35.3486 39.9184 40.1143 39.9184C40.1143 37.8869 40.1143 35.881 40.1143 33.8367ZM17.8574 47.5333C22.6614 47.5333 27.4143 47.5333 32.1672 47.5333C32.1672 45.489 32.1672 43.4703 32.1672 41.4644C27.376 41.4644 22.6231 41.4644 17.8574 41.4644C17.8574 43.4959 17.8574 45.5018 17.8574 47.5333ZM32.18 26.2219C28.8581 26.2219 25.6 26.2219 22.3292 26.2347C22.2014 26.2347 22.0098 26.3496 21.9715 26.4391C21.6265 27.4101 20.9366 27.8828 19.9272 27.9467C19.595 27.9723 19.3778 28.1895 19.3778 28.5089C19.3523 29.7738 19.365 31.0514 19.365 32.3291C23.658 32.3291 27.9126 32.3291 32.1672 32.3291C32.18 30.2848 32.18 28.2789 32.18 26.2219ZM40.1143 18.722C39.271 18.4537 38.6961 18.6964 38.3383 19.4375C38.2617 19.5908 38.1339 19.7186 38.0317 19.8591C37.5973 20.4468 36.984 20.7663 36.2685 20.7535C33.8154 20.7152 31.3623 20.664 28.922 20.5874C28.002 20.5618 27.2993 19.9613 27.031 19.0925C26.9799 18.9392 26.9416 18.7859 26.9032 18.6326C26.5327 18.6326 26.175 18.6326 25.7917 18.6326C25.7917 20.6768 25.7917 22.6828 25.7917 24.7398C30.5829 24.7398 35.3358 24.7398 40.1143 24.7398C40.1143 22.7211 40.1143 20.7152 40.1143 18.722ZM2.00162 26.2474C2.00162 28.3045 2.00162 30.3232 2.00162 32.3291C6.40955 32.3291 10.7792 32.3291 15.1615 32.3291C15.1615 31.192 15.1999 30.0932 15.136 29.0072C15.1232 28.7005 14.8677 28.2917 14.6121 28.1128C13.6539 27.474 12.504 28.0489 12.3635 29.1733C12.2229 30.2976 11.4691 31.0514 10.3831 31.1664C9.46316 31.2559 8.50492 30.617 8.24938 29.6716C8.15995 29.3394 8.17272 28.9816 8.14717 28.6367C8.10884 28.1384 7.92997 27.9595 7.43168 27.9339C6.10291 27.8828 5.54074 27.4868 5.08078 26.2347C4.07143 26.2474 3.0493 26.2474 2.00162 26.2474ZM13.5389 24.3437C11.648 24.3437 9.74425 24.3437 7.85331 24.3437C6.57565 24.3437 6.52454 24.382 6.55009 25.6469C6.56287 26.2985 6.69064 26.4391 7.38057 26.4646C8.08329 26.4774 8.69657 26.6818 9.15652 27.244C9.56538 27.7423 9.65481 28.33 9.62926 28.9561C9.61648 29.3521 9.7698 29.646 10.2042 29.6971C10.6003 29.7482 10.843 29.5182 10.9197 29.0455C10.9708 28.7133 11.0091 28.3811 11.1241 28.0745C11.5585 26.9629 12.5679 26.4135 13.9989 26.4774C15.6215 26.5413 16.6181 27.5762 16.6181 29.1988C16.6181 30.8726 16.6181 32.5463 16.6181 34.22C16.6181 34.7439 16.8736 35.0505 17.2697 35.0505C17.6658 35.0505 17.9213 34.7311 17.9468 34.22C17.9468 34.105 17.9468 34.0028 17.9468 33.8878C17.9468 32.0991 17.9213 30.3232 17.9724 28.5344C17.9852 28.0873 18.2024 27.6145 18.4451 27.2312C18.7645 26.7202 19.3267 26.5413 19.9272 26.4774C20.4511 26.4135 20.6044 26.2219 20.6171 25.698C20.6171 25.5703 20.6171 25.4425 20.6171 25.3147C20.6171 24.5354 20.4383 24.3565 19.6589 24.3565C17.6274 24.3437 15.5832 24.3437 13.5389 24.3437ZM48.0358 24.7909C48.0358 22.7339 48.0358 20.7152 48.0358 18.6709C45.8893 18.6709 43.7556 18.6709 41.6219 18.6709C41.6219 20.7279 41.6219 22.7466 41.6219 24.7909C43.7812 24.7909 45.8893 24.7909 48.0358 24.7909ZM8.42826 39.9184C8.42826 37.8741 8.42826 35.8682 8.42826 33.8367C6.26901 33.8367 4.14809 33.8367 2.00162 33.8367C2.00162 35.881 2.00162 37.8869 2.00162 39.9184C4.14809 39.9184 6.26901 39.9184 8.42826 39.9184ZM48.0358 39.9184C48.0358 37.8741 48.0358 35.8682 48.0358 33.8367C45.8893 33.8367 43.7556 33.8367 41.6091 33.8367C41.6091 35.881 41.6091 37.8869 41.6091 39.9184C43.7684 39.9184 45.8893 39.9184 48.0358 39.9184ZM42.0052 6.85253C43.2318 5.61319 44.4455 4.41219 45.6593 3.18564C46.132 2.70012 46.1576 2.16351 45.7488 1.75466C45.3399 1.3458 44.8161 1.37136 44.3178 1.85687C43.1423 3.01954 41.9797 4.19499 40.817 5.35766C40.7659 5.40877 40.7275 5.47265 40.702 5.51098C41.1364 5.95816 41.5452 6.37979 42.0052 6.85253ZM39.9993 6.94196C39.9737 6.95474 39.9354 6.96751 39.9098 6.99307C38.3511 8.55182 36.7796 10.1106 35.2208 11.6693C35.1697 11.7204 35.0675 11.7971 35.0803 11.8482C35.0931 12.0398 35.0803 12.2954 35.1825 12.3976C35.2847 12.4998 35.553 12.4742 35.7319 12.4359C35.8469 12.4104 35.9491 12.257 36.0513 12.1548C37.3801 10.8261 38.6961 9.49729 40.0376 8.18129C40.242 7.97687 40.4848 7.83633 40.7403 7.64468C40.4081 7.33804 40.2037 7.14639 39.9993 6.94196Z" fill="#4F4F4F"/>
</svg>
