<svg width="50" height="51" viewBox="0 0 50 51" fill="none" xmlns="http://www.w3.org/2000/svg">
<path fill-rule="evenodd" clip-rule="evenodd" d="M33.4988 48.902H31.6646C31.6646 48.6657 31.6646 48.4712 31.5812 48.235C31.5812 47.2591 31.5737 46.2832 31.5662 45.3077V45.3077V45.3076V45.3076V45.3076V45.3075V45.3075V45.3075V45.3074V45.3074V45.3074C31.5487 43.0326 31.5312 40.7598 31.609 38.4939C31.6784 36.8264 31.4144 35.3951 30.1638 34.2139C30.0109 34.0611 29.9415 33.7554 29.9276 33.5191C29.9068 32.9896 29.9093 32.4601 29.9119 31.9132V31.9132V31.9131V31.9131V31.913V31.913V31.913V31.9129V31.9129V31.9128V31.9128V31.9127V31.9127V31.9126V31.9125V31.9125V31.9124V31.9123V31.9123V31.9122V31.9121C29.9128 31.7274 29.9137 31.5407 29.9137 31.3514C29.6801 31.392 29.4503 31.3806 29.2255 31.3696C28.8359 31.3504 28.4616 31.3319 28.1096 31.5859C28.1061 31.5832 28.1018 31.5799 28.0971 31.5759C28.0916 31.5713 28.0855 31.5659 28.0794 31.5598L25.7449 28.5583C25.2029 27.8635 24.7027 27.8357 24.1329 28.4888C22.2848 30.601 20.4366 32.7132 18.6023 34.8531C18.4078 35.0894 18.2827 35.4368 18.2827 35.7425C18.2619 36.92 18.2645 38.1053 18.2671 39.2925C18.268 39.6885 18.2688 40.0848 18.2688 40.481C18.2688 40.5552 18.2609 40.6293 18.2514 40.7183C18.2431 40.796 18.2336 40.885 18.2272 40.9952L18.2268 40.9948C17.3793 40.1473 16.6012 39.3692 15.837 38.5912C15.0728 37.813 14.781 37.813 14.0306 38.5773C13.8676 38.7402 13.7032 38.9032 13.5353 39.0695L13.5343 39.0706L13.5341 39.0707C13.1871 39.4146 12.8256 39.7729 12.4325 40.1753C12.4325 37.5073 12.4325 34.9921 12.4464 32.4769C12.4603 31.9767 12.2936 31.6432 11.8906 31.3375C10.8901 30.5704 9.88953 29.7883 8.889 29.0062C8.22201 28.4849 7.55503 27.9635 6.88804 27.4466C6.26446 26.9669 5.64087 26.4938 4.98985 26C4.69789 25.7785 4.40042 25.5528 4.09496 25.3205V22.2495H2.45523V25.5012C1.77433 25.7235 1.63537 25.918 1.63537 26.5989V35.8675V36.34H3.31678V27.0992C3.42734 27.1425 3.53125 27.1757 3.62736 27.2065C3.80908 27.2647 3.9629 27.314 4.08106 27.4049C6.23493 29.0585 8.36102 30.7121 10.4871 32.3936C10.6539 32.5186 10.7928 32.7826 10.7928 32.9772C10.8067 35.8259 10.8067 38.6745 10.7928 41.5232C10.7928 41.7039 10.7094 41.954 10.5705 42.0513C9.29205 42.9406 8.95854 44.1634 9.1253 45.6642C9.19186 46.2728 9.17383 46.8944 9.15581 47.5156V47.5156V47.5157V47.5157V47.5157V47.5158V47.5158V47.5158V47.5159V47.5159V47.5159C9.1475 47.8024 9.13919 48.0889 9.13919 48.3739C9.13919 48.5268 9.1253 48.6796 9.1114 48.8325H3.28899V38.0631H1.63537V48.8881H0.0234375V50.5H49.8822V48.8603H46.4221C46.3477 48.5674 46.2764 48.2808 46.2062 47.9983C46.0665 47.4363 45.9308 46.8907 45.7829 46.3451C45.6161 45.7059 45.4077 45.5391 44.7684 45.5391H43.2538V31.4069H41.5863C41.7808 32.1156 41.4195 32.5603 40.9748 33.0189C40.4442 33.5588 39.9323 34.1174 39.4224 34.6739C39.1712 34.9481 38.9204 35.2217 38.6681 35.4924C38.599 35.5615 38.5228 35.6307 38.4246 35.7198L38.4234 35.7209C38.3838 35.7568 38.3407 35.796 38.2929 35.8398C38.2929 35.5294 38.292 35.2252 38.2911 34.9258V34.9257V34.9256V34.9256V34.9255V34.9254V34.9254V34.9253V34.9252V34.9252V34.9251C38.2886 34.045 38.2861 33.2054 38.3068 32.3658C38.3068 32.2129 38.4458 32.0184 38.557 31.8933C38.9865 31.4113 39.424 30.9451 39.8635 30.4769L39.8646 30.4756L39.8648 30.4754L39.8651 30.4752L39.8653 30.475C40.008 30.3229 40.151 30.1705 40.2939 30.0173C40.7108 29.5727 41.1277 29.128 41.6558 28.5583V29.6838H43.3094V13.0365C43.7724 13.0365 44.2276 13.0349 44.678 13.0333L44.6788 13.0333C45.5664 13.0303 46.4359 13.0273 47.3114 13.0365C47.7839 13.0365 48.0896 12.8419 48.298 12.425C48.6357 11.72 48.9875 11.022 49.3383 10.3261L49.3393 10.3241C49.479 10.0468 49.6186 9.76993 49.7571 9.493C50.0906 8.8121 50.0628 8.58976 49.5348 8.06172C49.1859 7.70964 48.8378 7.3561 48.4895 7.00243L48.4893 7.00227L48.4892 7.0021L48.489 7.00193L48.4884 7.00131C47.3251 5.81989 46.1605 4.63718 44.963 3.50384C44.3516 2.92021 44.0459 2.33658 44.1292 1.47503C44.1987 0.80802 43.8513 0.516205 43.1565 0.516205C42.8528 0.510249 42.5491 0.511951 42.2453 0.513653C41.8404 0.515921 41.4354 0.51819 41.0304 0.502309C40.4746 0.474517 40.1411 0.696852 39.9604 1.211C39.935 1.2938 39.8949 1.37368 39.8549 1.45332C39.8077 1.54743 39.7607 1.6412 39.7381 1.73905C39.6408 2.18372 39.3212 2.2532 38.9321 2.29489C36.3753 2.57281 33.8045 2.86462 31.2477 3.15644C28.5943 3.46207 25.927 3.76769 23.2597 4.07332L23.2596 4.07333L23.2595 4.07334L23.2594 4.07336L23.2593 4.07337L23.2592 4.07338L23.2591 4.07339L23.259 4.0734L23.2589 4.07341L23.2588 4.07342L23.2587 4.07344L23.2575 4.07357C22.1109 4.2056 20.9678 4.33764 19.8247 4.46967L19.8245 4.46968C18.6818 4.60167 17.5391 4.73366 16.3929 4.86564C15.2604 4.99765 14.1244 5.12272 12.9884 5.24778C11.8524 5.37284 10.7164 5.49791 9.58386 5.62992C8.53472 5.75498 7.48557 5.87657 6.43643 5.99816C5.38728 6.11975 4.33813 6.24134 3.28899 6.36641C2.84432 6.42199 2.5803 6.71381 2.5664 7.17237C2.55723 7.3557 2.56016 7.53903 2.56321 7.73034L2.56321 7.73037C2.56479 7.82907 2.5664 7.92989 2.5664 8.03392H1.01005C0.217981 8.04782 -0.143314 8.61755 0.204085 9.34014L0.204097 9.34017C0.718244 10.3963 1.23239 11.4523 1.78823 12.4945C1.91329 12.7169 2.219 12.9809 2.44134 12.9948C3.50437 13.0365 4.56741 13.0313 5.63044 13.0261C5.98479 13.0243 6.33915 13.0226 6.6935 13.0226V11.369C6.33025 11.369 5.97011 11.3705 5.61206 11.3721L5.61169 11.3721C4.9015 11.3752 4.19946 11.3782 3.49743 11.369C3.34457 11.369 3.10834 11.3273 3.05276 11.23C2.8402 10.8687 2.66016 10.491 2.47533 10.1034L2.47532 10.1034L2.4753 10.1034C2.41847 9.98417 2.36119 9.86403 2.30238 9.74313H12.5437V11.3829H8.44439V13.0643H15.8648V16.3854C15.807 16.3854 15.7526 16.3871 15.7003 16.3887C15.6017 16.3917 15.511 16.3945 15.4202 16.3854C14.7532 16.302 14.378 16.6077 14.1278 17.2331C13.7647 18.1183 13.3644 18.9943 12.9649 19.8686C12.8753 20.0647 12.7857 20.2608 12.6966 20.4569C12.5298 20.8321 12.5298 21.1795 12.7521 21.5408C12.8358 21.6822 12.9201 21.8223 13.0041 21.9621L13.0041 21.9621L13.0041 21.9621C13.3246 22.4953 13.6412 23.022 13.9055 23.5835C14.2946 24.4034 14.8087 24.9175 15.7815 24.7369C15.8093 24.7369 15.837 24.7647 15.8509 24.7786C16.0316 25.5706 15.8648 26.2237 15.1978 26.7518C14.8446 27.0326 14.5327 27.3606 14.2198 27.6896L14.2198 27.6896C14.0526 27.8654 13.8852 28.0415 13.711 28.2109C13.4191 28.4888 13.308 28.8223 13.433 29.1975C13.4663 29.3024 13.4993 29.4074 13.5323 29.5122L13.5323 29.5123L13.5323 29.5123L13.5323 29.5123L13.5323 29.5123L13.5323 29.5124L13.5323 29.5124L13.5323 29.5124L13.5323 29.5124L13.5323 29.5124L13.5323 29.5124L13.5324 29.5125C13.7614 30.2406 13.9892 30.9648 14.2807 31.6571C14.3919 31.8933 14.7532 32.1851 15.0033 32.199C16.0018 32.2599 17.011 32.2461 18.0121 32.2324L18.0127 32.2324L18.0133 32.2324C18.1542 32.2304 18.295 32.2285 18.4356 32.2268C18.8803 32.2268 19.1999 31.9628 19.2138 31.532C19.2435 30.9174 19.2379 30.3028 19.2322 29.6832V29.6831V29.683V29.683V29.6829V29.6829V29.6828V29.6827V29.6827V29.6826V29.6825C19.2299 29.4338 19.2277 29.1842 19.2277 28.9335H17.5463V30.5593H16.6013C16.1496 30.5593 15.9237 30.5593 15.7726 30.453C15.6215 30.3467 15.5452 30.1342 15.3926 29.7092L15.3785 29.6699C15.2256 29.2809 15.2534 29.0168 15.5869 28.725C15.8773 28.4728 16.1425 28.1996 16.4079 27.9262C16.6251 27.7025 16.8424 27.4786 17.0738 27.2659C17.4351 26.9463 17.6157 26.585 17.574 26.0848C17.5443 25.768 17.5499 25.4512 17.5556 25.1295V25.1294V25.1294V25.1294V25.1294V25.1294V25.1294V25.1293V25.1293V25.1293V25.1293C17.5578 24.9994 17.5601 24.8687 17.5601 24.7369C17.6274 24.7369 17.6851 24.7349 17.736 24.7332H17.736C17.8217 24.7304 17.8882 24.7282 17.9492 24.7369C18.6579 24.848 19.0748 24.5284 19.3805 23.9031C19.7696 23.1527 20.2004 22.4163 20.6451 21.6937C20.9091 21.249 20.9369 20.846 20.7145 20.3735C20.2421 19.373 19.7696 18.3586 19.3666 17.3303C19.1026 16.6494 18.7135 16.2881 17.9631 16.3993C17.8629 16.4193 17.7699 16.4032 17.679 16.3875C17.6438 16.3814 17.6089 16.3754 17.574 16.3715V13.1198C17.6045 13.1138 17.6323 13.105 17.6574 13.0971L17.6574 13.0971C17.6896 13.0869 17.7174 13.0782 17.7408 13.0782C18.5572 13.0782 19.3726 13.0773 20.1877 13.0764L20.1891 13.0764C22.6339 13.0738 25.0748 13.0712 27.5236 13.0921C27.6903 13.106 27.9404 13.3005 28.0238 13.4811L28.4308 14.2885C29.2395 15.8924 30.0454 17.4905 30.8308 19.109C31.0531 19.5815 31.3727 19.776 31.8869 19.7621C32.794 19.7413 33.709 19.7439 34.62 19.7465C34.9231 19.7474 35.2258 19.7482 35.5276 19.7482H36.6254V45.5947C36.4462 45.5947 36.2718 45.5963 36.1005 45.5979H36.1003C35.767 45.601 35.4458 45.6039 35.1246 45.5947C34.5827 45.5808 34.277 45.8171 34.1519 46.3312C34.0142 46.8913 33.8704 47.4514 33.7246 48.0195C33.6497 48.3112 33.5742 48.605 33.4988 48.902ZM21.6722 6.01474L21.6742 6.01451C27.3322 5.37096 33.0058 4.72566 38.7098 4.07357C38.4285 4.70156 38.1595 5.308 37.8956 5.90303L37.8938 5.90709L37.8934 5.90799L37.8929 5.9093L37.8927 5.90974L37.8915 5.91244C37.5962 6.57813 37.3073 7.2296 37.0145 7.88107C36.9737 7.97636 36.8261 8.03165 36.7156 8.07305L36.7088 8.07561C36.6527 8.0943 36.5903 8.08785 36.5301 8.08162C36.5008 8.07859 36.4721 8.07561 36.4448 8.07561H4.77586H4.31729V7.99224C10.0969 7.33131 15.8764 6.67394 21.6722 6.01474ZM23.8883 31.4867C24.2457 31.0715 24.6042 30.6551 24.9667 30.2397C25.8977 31.4486 26.8149 32.6159 27.732 33.7693C28.4129 34.6447 29.0938 35.5201 29.7608 36.4095C29.872 36.5485 29.9831 36.743 29.9831 36.9097C30.0039 37.8041 30.0014 38.6985 29.9988 39.6104V39.6105V39.6106C29.9979 39.9171 29.997 40.2255 29.997 40.5366H20.0058C20.0058 40.2124 20.0141 39.8869 20.0224 39.5608L20.0224 39.5607C20.0405 38.8525 20.0585 38.1419 19.9919 37.4378C19.8808 36.34 20.2282 35.5479 20.9786 34.7559C21.9804 33.7034 22.9306 32.5994 23.8883 31.4867ZM13.4106 41.7202C13.9431 41.1866 14.4827 40.6459 15.0311 40.0919C16.3929 41.4815 17.7269 42.8155 19.0609 44.1495C19.1443 44.219 19.186 44.358 19.186 44.4692V48.8742H15.8648V45.6086H14.2112V48.8881H10.8623V48.8878C10.8623 47.401 10.8623 45.9281 10.8762 44.4553C10.8762 44.3441 10.9596 44.1912 11.0429 44.1079C11.82 43.314 12.6072 42.5252 13.4104 41.7203L13.4106 41.7202ZM21.5205 11.4106H20.8674V11.4104C20.8674 10.813 20.8674 10.2989 20.8535 9.75702H47.7422L47.6465 9.95955C47.4339 10.4102 47.2356 10.8307 47.0057 11.23C46.9501 11.3412 46.7278 11.3967 46.5749 11.3967C45.9913 11.4176 45.4077 11.415 44.824 11.4124C44.6295 11.4115 44.4349 11.4106 44.2404 11.4106H21.5205ZM20.0152 42.5401C19.9747 42.4562 19.9316 42.3668 19.8808 42.2736H19.8836C23.3427 42.2736 26.6351 42.2736 29.9831 42.2875V44.761H29.4412H23.5632C22.7711 44.761 22.5071 45.0111 22.5071 45.8171V48.902H20.8674C20.8535 48.7352 20.8396 48.5685 20.8396 48.4017C20.8396 48.0652 20.8387 47.7278 20.8379 47.3899V47.3898C20.8353 46.3745 20.8326 45.3554 20.8535 44.3441C20.8674 43.7882 20.7284 43.3714 20.3115 43.0101C20.186 42.8942 20.1074 42.7313 20.0152 42.5401ZM36.6115 13.1198V18.0807H32.4288C32.3177 18.0807 32.1648 18.039 32.1231 17.9556C31.913 17.5686 31.7205 17.1815 31.5106 16.7595L31.5106 16.7595C31.4567 16.6512 31.4017 16.5406 31.3449 16.4271H33.2626V14.7596C33.0042 14.7596 32.7443 14.758 32.4834 14.7565H32.4833H32.4833H32.4832H32.4832H32.4832H32.4831H32.4831H32.483H32.483H32.4829C31.9581 14.7534 31.4292 14.7503 30.9003 14.7596C30.6363 14.7596 30.4556 14.704 30.3444 14.4261C30.2143 14.1158 30.0626 13.82 29.8997 13.5023L29.8996 13.5022L29.8995 13.5019L29.8991 13.5011C29.8359 13.378 29.7711 13.2516 29.7052 13.1198H36.6115ZM44.7129 48.902H35.2497C35.3887 48.36 35.5137 47.832 35.6388 47.29H44.3238L44.324 47.291L44.3241 47.2914C44.4491 47.819 44.574 48.3466 44.7129 48.902ZM16.8395 23.0761C16.742 23.0795 16.6325 23.0833 16.5041 23.0833C15.7537 23.3334 15.3646 22.8192 14.9199 22.1105C14.378 21.2768 14.2668 20.5403 14.8226 19.7204C14.8365 19.6996 14.847 19.6753 14.8574 19.6509C14.8678 19.6266 14.8782 19.6023 14.8921 19.5815C15.6425 17.9001 15.6981 17.8584 17.5601 18.0807C17.6713 18.0946 17.8242 18.1919 17.8659 18.2891C18.2411 19.0951 18.6023 19.915 18.9497 20.7487C19.0053 20.8738 18.9636 21.0683 18.8942 21.2073C18.7917 21.4061 18.6789 21.5997 18.5657 21.7938C18.4179 22.0472 18.2697 22.3015 18.1438 22.5691C17.9631 22.9721 17.713 23.1527 17.2683 23.0833C17.137 23.0657 17.0056 23.0703 16.8395 23.0761H16.8395ZM29.9692 48.8881H24.1885V46.4563H29.9692V48.8881ZM42.2973 2.24274C42.3476 2.24109 42.402 2.2393 42.4617 2.2393V8.04782H38.8349C38.857 7.98702 38.8769 7.92843 38.8963 7.87115C38.9258 7.78443 38.9542 7.70074 38.9877 7.61704C39.1496 7.25527 39.3121 6.89423 39.4746 6.53341L39.4747 6.53325L39.4747 6.53312L39.4748 6.53304L39.4748 6.53297L39.4748 6.53292L39.4748 6.53287L39.4749 6.53284L39.4749 6.53281L39.4749 6.53278C40.0237 5.31384 40.5714 4.0975 41.086 2.86462C41.2806 2.37826 41.5307 2.14203 42.0587 2.2393C42.1301 2.24822 42.2071 2.24569 42.2973 2.24274ZM41.5366 34.9937L41.5366 34.9937L41.5367 34.9937C41.5679 34.9789 41.6034 34.9622 41.6419 34.9365C41.6419 35.2681 41.6427 35.597 41.6436 35.9237V35.9257V35.9259C41.6462 36.8994 41.6488 37.8534 41.628 38.7996C41.628 38.9108 41.6002 39.0497 41.5307 39.1331C40.4885 40.2726 39.4463 41.3981 38.3068 42.621C38.3068 41.1758 38.3068 39.8696 38.3207 38.5634C38.3207 38.4522 38.4041 38.341 38.4875 38.2577C39.136 37.5443 39.7968 36.8309 40.4577 36.1176C40.7881 35.7609 41.1185 35.4043 41.4473 35.0477C41.4697 35.0253 41.5002 35.0109 41.5365 34.9937L41.5366 34.9937ZM38.9222 29.0423C38.7299 29.2598 38.5317 29.4838 38.3207 29.7116V25.7096C38.3207 25.5984 38.3763 25.4734 38.4458 25.39C39.2754 24.4819 40.1141 23.5828 41.0057 22.6271C41.2191 22.3982 41.4356 22.1661 41.6558 21.9299V22.8053C41.6558 22.9265 41.652 23.0477 41.6482 23.1684L41.6482 23.1688C41.6395 23.4496 41.6308 23.7284 41.6697 24.0004C41.9059 25.515 41.4056 26.6962 40.2384 27.6828C39.7739 28.0796 39.3633 28.5437 38.9222 29.0423ZM38.4458 19.1229C39.4741 17.9973 40.5024 16.8857 41.6419 15.6628C41.6419 16.1043 41.6435 16.5279 41.6451 16.9397V16.9401V16.9405V16.9409V16.9412V16.9416V16.9419V16.9423V16.9427V16.943V16.9433C41.6481 17.7359 41.651 18.485 41.6419 19.2341C41.6419 19.3452 41.6141 19.4842 41.5446 19.5676C40.5024 20.6931 39.4602 21.8187 38.3207 23.0416C38.3207 22.5962 38.3191 22.1653 38.3175 21.7445V21.7445V21.7444V21.7443V21.7443V21.7442V21.7441V21.7441V21.744V21.7439V21.7439C38.3145 20.931 38.3116 20.1559 38.3207 19.3869C38.3207 19.3036 38.3763 19.1924 38.4458 19.1229ZM19.1443 11.369H14.2112V9.77092H19.1443V11.369ZM38.5153 44.9138C39.5158 43.816 40.5302 42.7183 41.628 41.5371V45.5669H38.2512C38.2835 45.484 38.3081 45.401 38.3317 45.3216C38.3792 45.1616 38.4224 45.016 38.5153 44.9138ZM41.7252 13.106C40.5858 14.3288 39.5019 15.4961 38.3485 16.7467V13.106H41.7252ZM45.9274 7.16102C46.2239 7.45902 46.5198 7.7565 46.8112 8.04782H44.1709V5.40759C44.7365 5.96389 45.333 6.56351 45.9274 7.16102ZM5.06673 33.0328V31.4209H5.06756V31.4209H6.6517V33.0328L6.65087 33.0328H5.06673ZM9.15176 33.936V33.9356H7.56762V35.5614H7.568V35.5619H9.15214V33.936H9.15176ZM6.66476 36.4512V36.4515H6.66559V38.0634H5.06756V38.0631H5.06673V36.4512H6.66476ZM7.568 38.9387V38.9386H9.16603V40.5366H9.16565V40.5368H7.56762V38.9387H7.568ZM6.66476 43.0657H5.05283V41.4677H5.05292V41.4674H6.66486V43.0655H6.66476V43.0657ZM6.66476 47.2344V47.2345H5.06673V45.6226H5.06756V45.6224H6.66559V47.2344H6.66476ZM25.8009 35.5754H24.2167V33.9496H25.8009V35.5754ZM23.3139 38.8831V37.285H21.702V38.8831H23.3139ZM26.6753 38.8831V37.285H28.2872V38.8831H26.6753ZM17.4902 21.388V19.7761H15.8921V21.388H17.4902Z" fill="#4F4F4F"/>
</svg>
