<svg width="68" height="56" viewBox="0 0 68 56" fill="none" xmlns="http://www.w3.org/2000/svg">
<circle cx="33" cy="34" r="22" fill="#9BCA41" fill-opacity="0.2"/>
<path d="M35.5026 19.5384C36.4363 19.5384 37.2419 19.5384 37.9742 19.5384C38.0292 18.6595 37.9193 17.7807 38.1573 17.0118C38.432 16.1329 39.0362 15.3457 39.4756 14.5035C39.6037 14.2655 39.7502 13.9725 39.6953 13.7162C39.2742 11.4276 40.153 9.41364 42.1669 8.24189C42.4782 8.0588 42.5331 7.87571 42.5331 7.54616C42.4782 5.16602 44.2175 3.0239 46.4512 2.73096C48.9412 2.40141 51.0833 3.79287 51.7424 6.15469C51.834 6.48425 51.9438 6.83212 51.9072 7.16167C51.8156 7.82079 52.0903 8.13203 52.6395 8.4799C54.3422 9.54181 55.1478 11.629 54.7633 13.6063C54.7084 13.881 54.7633 14.2655 54.9281 14.4485C56.1365 15.8217 56.6675 17.3596 56.3562 19.1905C56.3379 19.282 56.3562 19.3736 56.3562 19.575C56.5942 19.575 56.8322 19.575 57.0702 19.575C59.7982 19.575 62.5079 19.5933 65.2176 19.575C66.2978 19.5567 67.14 19.9229 67.671 20.8749C68.2203 21.8636 68.0372 22.7973 67.4513 23.7128C62.2699 31.5855 57.1069 39.4766 51.9438 47.3493C51.3579 48.2464 50.5706 48.6675 49.4904 48.6675C33.9097 48.6492 18.329 48.6492 2.74827 48.6675C1.66805 48.6675 0.825851 48.3014 0.313207 47.331C-0.217746 46.3423 -0.0346587 45.4086 0.569529 44.4932C4.45098 38.5977 8.31412 32.7023 12.1773 26.8069C12.342 26.5506 12.5251 26.276 12.7448 25.9281C12.5068 25.9098 12.342 25.8732 12.1589 25.8732C10.7492 25.8732 9.3211 25.8732 7.91133 25.8732C6.28185 25.8732 5.27487 24.8662 5.23825 23.2367C5.23825 23.1635 5.23825 23.1086 5.23825 23.0353C5.23825 16.4259 5.25656 9.83475 5.21994 3.2253C5.21994 1.72398 6.13538 0.33252 8.09441 0.33252C16.2967 0.387446 24.499 0.350828 32.7013 0.350828C34.5871 0.350828 35.5026 1.28457 35.5026 3.17037C35.5026 8.33343 35.5026 13.4965 35.5026 18.6595C35.5026 18.9525 35.5026 19.2271 35.5026 19.5384ZM24.0962 25.8915C24.0779 26.1661 24.0596 26.3492 24.0596 26.5323C24.0596 28.3632 24.0596 30.194 24.0596 32.0066C24.0596 33.1051 23.6568 33.5079 22.5766 33.5079C21.0936 33.5079 19.6106 33.5079 18.1276 33.5079C17.1023 33.5079 16.7178 33.1234 16.7178 32.1165C16.7178 30.2856 16.7178 28.4547 16.7178 26.6422C16.7178 26.4041 16.7178 26.1661 16.7178 25.8732C16.1136 25.983 15.5644 25.6535 15.1433 26.2943C10.914 32.7756 6.66633 39.2386 2.43702 45.7015C2.32717 45.8663 2.30886 46.0677 2.25393 46.2508C2.45533 46.3057 2.65672 46.4339 2.87643 46.4339C18.3656 46.4339 33.8548 46.4522 49.344 46.4156C49.6186 46.4156 50.0031 46.2142 50.1495 45.9762C55.2943 38.1583 60.4207 30.3405 65.5472 22.5227C65.657 22.3579 65.7303 22.1016 65.6936 21.9368C65.6753 21.8453 65.3458 21.772 65.1627 21.772C62.0319 21.7537 58.9011 21.7537 55.7703 21.7903C55.4957 21.7903 55.1844 21.9734 54.9831 22.1748C54.1409 23.0353 53.1705 23.6029 51.9987 23.8592C50.772 24.1155 49.6003 23.9325 48.3736 23.4564C48.3736 23.7494 48.3736 23.9691 48.3736 24.1888C48.3736 25.5802 48.3736 26.9717 48.3736 28.3632C48.3736 29.3518 47.9891 29.8462 47.2568 29.8462C46.5061 29.8462 46.1216 29.3518 46.1216 28.3815C46.1216 27.0816 46.1216 25.7816 46.1216 24.4817C46.1216 24.1522 46.1216 23.8226 46.1216 23.5114C45.9935 23.4931 45.9752 23.4931 45.9569 23.4931C43.4302 24.4085 41.2149 24.0057 39.3657 21.9734C39.2742 21.8819 39.146 21.772 39.0362 21.772C37.8827 21.7537 36.7293 21.772 35.5392 21.772C35.5392 22.3762 35.5392 22.8706 35.5392 23.3832C35.5209 24.8479 34.5139 25.8732 33.0492 25.8915C31.2733 25.9098 29.479 25.8915 27.7031 25.8915C26.4947 25.8915 25.3412 25.8915 24.0962 25.8915ZM21.8076 31.2193C21.8076 29.1504 21.8076 27.1731 21.8076 25.1775C21.8076 24.0789 22.1921 23.6944 23.2723 23.6944C26.3482 23.6944 29.4424 23.6761 32.5182 23.7128C33.1224 23.7128 33.3055 23.548 33.3055 22.9438C33.2872 16.4076 33.2872 9.88967 33.3055 3.35346C33.3055 2.74927 33.1224 2.58449 32.5182 2.58449C24.4075 2.6028 16.2967 2.6028 8.20427 2.58449C7.6367 2.58449 7.45361 2.74927 7.47192 3.31684C7.49023 9.87136 7.49023 16.4259 7.47192 22.9804C7.47192 23.6029 7.69162 23.7311 8.2775 23.7311C11.39 23.7128 14.4842 23.7128 17.5966 23.7128C18.5304 23.7128 18.9149 24.0972 18.9149 25.0493C18.9149 26.8802 18.9149 28.711 18.9149 30.5236C18.9149 30.7616 18.9149 30.9996 18.9149 31.2376C19.9218 31.2193 20.8373 31.2193 21.8076 31.2193ZM48.337 13.9725C48.6849 13.6796 48.8862 13.4782 49.1243 13.35C49.582 13.0937 50.2228 13.2585 50.534 13.6979C50.8636 14.1556 50.8453 14.8147 50.296 15.2175C48.6848 16.4076 48.099 17.9272 48.3004 19.9412C48.3919 20.7651 48.5933 21.1495 49.344 21.4425C51.065 22.1199 52.8409 21.6256 53.7014 20.1242C54.6169 18.5497 54.2507 16.7005 52.7677 15.5471C52.072 14.9978 51.9804 14.6682 52.3283 13.8444C53.0606 12.1233 52.2734 10.4572 50.4608 9.90798C49.4355 9.59673 49.1975 9.15732 49.5087 8.13203C49.8383 7.05182 49.4904 5.97161 48.6116 5.3308C47.806 4.74492 46.6709 4.74492 45.847 5.29418C44.9499 5.89837 44.5654 6.99689 44.8583 8.0588C45.1879 9.23056 44.9865 9.59673 43.888 9.92629C42.1669 10.4389 41.3797 12.105 42.0754 13.7711C42.4599 14.7049 42.3867 14.9612 41.5994 15.5837C39.9882 16.847 39.7685 19.0623 41.0867 20.6186C42.0754 21.7903 43.65 22.0467 45.3344 21.3143C46.2864 20.8932 46.4146 20.2341 45.6456 19.4834C44.8583 18.6779 44.0711 17.8906 43.2838 17.085C42.7711 16.554 42.7345 15.8949 43.1739 15.4372C43.65 14.9429 44.2724 14.9612 44.8583 15.5288C45.2245 15.8766 45.5724 16.2611 45.9202 16.6273C46.0667 15.0527 46.0667 13.5697 46.0667 12.0867C46.0667 11.2262 46.5427 10.6586 47.2202 10.6769C47.8793 10.6953 48.3004 11.2262 48.3187 12.0684C48.3553 12.6726 48.337 13.2585 48.337 13.9725Z" fill="#9BCA41"/>
<path d="M20.36 22.083C15.4167 22.0647 11.3704 18.0185 11.3887 13.0934C11.407 8.16836 15.4716 4.14044 20.4149 4.15875C25.4132 4.19537 29.3496 8.20498 29.3313 13.2399C29.313 18.11 25.2484 22.1013 20.36 22.083ZM13.659 13.1117C13.6407 16.8284 16.625 19.8493 20.3051 19.8676C24.0584 19.8859 27.1342 16.8467 27.1342 13.13C27.1159 9.44998 24.095 6.42904 20.4149 6.42904C16.6616 6.39242 13.6773 9.35843 13.659 13.1117Z" fill="#9BCA41"/>
<path d="M16.2235 15.1075C15.8023 15.1075 15.4362 15.0526 15.1799 14.9611C14.9052 14.8695 14.7038 14.7048 14.5757 14.4851C14.4475 14.2653 14.3926 13.9724 14.3926 13.6245C14.3926 13.4048 14.4109 13.1485 14.4475 12.8739C14.4841 12.5993 14.539 12.3429 14.594 12.1049H15.3812C15.3446 12.3429 15.308 12.5626 15.2714 12.7823C15.2348 13.002 15.2348 13.1851 15.2348 13.3316C15.2348 13.533 15.2531 13.6978 15.308 13.8259C15.3629 13.9358 15.4545 14.0273 15.601 14.064C15.7474 14.1006 15.9854 14.1372 16.2784 14.1372C16.5164 14.1372 16.6995 14.1189 16.8276 14.0823C16.9558 14.0456 17.029 13.9724 17.084 13.8626C17.1206 13.7527 17.1572 13.5879 17.1572 13.3865C17.1572 13.2584 17.1572 13.1119 17.1572 12.9288C17.1572 12.7457 17.1389 12.5626 17.1389 12.3612C17.1389 12.1598 17.1206 11.9768 17.1023 11.7937L17.8895 11.7571C17.9262 12.1049 17.9445 12.4162 17.9628 12.6725C17.9628 12.9471 17.9811 13.1668 17.9811 13.3499C17.9811 13.7161 17.9262 14.0273 17.8346 14.247C17.7431 14.4667 17.6149 14.6681 17.4501 14.778C17.2854 14.9062 17.1023 14.9977 16.8826 15.0343C16.6812 15.0892 16.4432 15.1075 16.2235 15.1075ZM18.1825 13.8442C17.9811 13.8442 17.8163 13.8076 17.7065 13.7527C17.5966 13.6795 17.4684 13.5696 17.322 13.4048L17.6332 12.6725C17.7797 12.764 17.8895 12.819 17.9994 12.8373C18.0909 12.8556 18.2008 12.8739 18.3106 12.8739C18.4022 12.8739 18.4571 12.8556 18.4937 12.819C18.5303 12.7823 18.5487 12.7091 18.5487 12.5993C18.5487 12.4528 18.567 12.3063 18.567 12.1598C18.567 12.0134 18.5853 11.8669 18.5853 11.7204L19.2627 11.7021C19.2627 11.8303 19.2627 11.9768 19.2627 12.1049C19.2627 12.2331 19.2627 12.3795 19.2444 12.5077C19.2444 12.6359 19.2261 12.7823 19.2261 12.9105C19.2078 13.0387 19.1895 13.1668 19.1162 13.2584C19.0613 13.3682 18.9881 13.4598 18.9514 13.533H18.8233C18.7684 13.6429 18.6768 13.7344 18.567 13.7893C18.4205 13.8076 18.3106 13.8442 18.1825 13.8442ZM19.5739 13.8442C19.3726 13.8442 19.2078 13.8076 19.0796 13.7161C18.9515 13.6245 18.8233 13.4964 18.6951 13.3133L18.8965 12.6725C19.0064 12.7274 19.0979 12.7823 19.1895 12.8007C19.281 12.8373 19.3542 12.8556 19.4458 12.8556C19.5373 12.8556 19.6106 12.8373 19.6655 12.7823C19.7021 12.7457 19.7387 12.6725 19.7387 12.5809C19.7387 12.4528 19.7204 12.3063 19.7021 12.1415C19.6838 11.9768 19.6472 11.7937 19.6289 11.5923L20.3612 11.4824C20.3978 11.7204 20.4345 11.9401 20.4711 12.1598C20.4894 12.3795 20.5077 12.5809 20.5077 12.7823C20.5077 13.1302 20.4345 13.3865 20.2697 13.5696C20.1049 13.7527 19.8852 13.8442 19.5739 13.8442Z" fill="#9BCA41"/>
<path d="M21.8452 13.8627C21.6804 13.8627 21.5156 13.8077 21.4057 13.6796C21.2959 13.5514 21.2227 13.405 21.2227 13.2402C21.2227 13.0754 21.2776 12.9289 21.4057 12.8008C21.5339 12.6726 21.6804 12.6177 21.8452 12.6177C22.0099 12.6177 22.1564 12.6726 22.2846 12.8008C22.4127 12.9289 22.4676 13.0754 22.4676 13.2402C22.4676 13.405 22.4127 13.5514 22.2846 13.6796C22.1564 13.8077 22.0282 13.8627 21.8452 13.8627Z" fill="#9BCA41"/>
<path d="M23.4013 15.474C23.2182 15.474 23.0717 15.474 22.9619 15.4557C22.852 15.4374 22.7239 15.419 22.5957 15.3824L22.6323 14.467C22.7605 14.4853 22.8703 14.4853 22.9619 14.5036C23.0534 14.5036 23.1816 14.5219 23.3281 14.5219C23.7675 14.5219 24.1153 14.4487 24.3716 14.3022C24.628 14.1557 24.7561 13.8994 24.7561 13.5699C24.7561 13.3318 24.7012 13.0938 24.6097 12.8375C24.5181 12.5812 24.3716 12.2699 24.1886 11.9221L24.9941 11.501C25.2139 11.8672 25.3786 12.2333 25.5068 12.5629C25.6349 12.9107 25.6899 13.2403 25.6899 13.5516C25.6899 13.991 25.5983 14.3571 25.3969 14.6318C25.1955 14.9247 24.9392 15.1444 24.5914 15.2726C24.2252 15.419 23.8407 15.474 23.4013 15.474Z" fill="#9BCA41"/>
</svg>
